<svg width="650" height="650" viewBox="0 0 650 650" fill="none" xmlns="http://www.w3.org/2000/svg">
<mask id="path-1-inside-1_37_7" fill="white">
<path fill-rule="evenodd" clip-rule="evenodd" d="M330.187 225.039C324.39 170.777 287.817 129 227.933 129C162.472 129 121 178.92 121 240.5C121 262.406 122.869 281.269 129.425 297.039C105.751 323.068 92 355.364 92 392.618C92 495.227 196.318 522 325 522C453.682 522 558 495.227 558 392.618C558 358.557 546.505 328.64 526.441 303.869C535.558 286.811 538 265.663 538 240.5C538 178.92 496.923 129 432.086 129C372.769 129 336.543 170.781 330.804 225.047C330.599 225.044 330.393 225.041 330.187 225.039Z"/>
</mask>
<path fill-rule="evenodd" clip-rule="evenodd" d="M330.187 225.039C324.39 170.777 287.817 129 227.933 129C162.472 129 121 178.92 121 240.5C121 262.406 122.869 281.269 129.425 297.039C105.751 323.068 92 355.364 92 392.618C92 495.227 196.318 522 325 522C453.682 522 558 495.227 558 392.618C558 358.557 546.505 328.64 526.441 303.869C535.558 286.811 538 265.663 538 240.5C538 178.92 496.923 129 432.086 129C372.769 129 336.543 170.781 330.804 225.047C330.599 225.044 330.393 225.041 330.187 225.039Z" fill="#0A8754"/>
<path d="M330.187 225.039L313.154 226.858C314.075 235.476 321.287 242.048 329.953 242.167L330.187 225.039ZM129.425 297.039L142.097 308.565C146.567 303.651 147.792 296.596 145.242 290.463L129.425 297.039ZM526.441 303.869L511.334 295.794C508.087 301.869 508.794 309.298 513.13 314.65L526.441 303.869ZM330.804 225.047L330.542 242.175C339.405 242.311 346.907 235.663 347.839 226.849L330.804 225.047ZM227.933 146.13C253.634 146.13 273.323 154.979 287.274 168.828C301.402 182.853 310.604 202.989 313.154 226.858L347.22 223.219C343.973 192.826 331.99 164.943 311.41 144.514C290.654 123.909 262.115 111.87 227.933 111.87V146.13ZM138.13 240.5C138.13 186.996 173.259 146.13 227.933 146.13V111.87C151.684 111.87 103.87 170.844 103.87 240.5H138.13ZM145.242 290.463C140.016 277.892 138.13 261.796 138.13 240.5H103.87C103.87 263.016 105.721 284.645 113.608 303.615L145.242 290.463ZM109.13 392.618C109.13 359.908 121.096 331.654 142.097 308.565L116.753 285.513C90.405 314.481 74.8703 350.821 74.8703 392.618H109.13ZM325 504.87C261.24 504.87 206.097 498.138 167.44 480.242C148.383 471.42 134.014 460.192 124.37 446.336C114.817 432.611 109.13 415.213 109.13 392.618H74.8703C74.8703 421.327 82.2231 445.754 96.251 465.908C110.188 485.93 129.941 500.635 153.048 511.332C198.72 532.475 260.078 539.13 325 539.13V504.87ZM540.87 392.618C540.87 415.213 535.183 432.611 525.63 446.336C515.986 460.192 501.617 471.42 482.56 480.242C443.903 498.138 388.76 504.87 325 504.87V539.13C389.922 539.13 451.28 532.475 496.952 511.332C520.059 500.635 539.812 485.93 553.749 465.908C567.777 445.754 575.13 421.327 575.13 392.618H540.87ZM513.13 314.65C530.842 336.517 540.87 362.666 540.87 392.618H575.13C575.13 354.449 562.169 320.763 539.752 293.087L513.13 314.65ZM520.87 240.5C520.87 265.068 518.368 282.633 511.334 295.794L541.548 311.943C552.748 290.99 555.13 266.259 555.13 240.5H520.87ZM432.086 146.13C485.989 146.13 520.87 186.836 520.87 240.5H555.13C555.13 171.005 507.858 111.87 432.086 111.87V146.13ZM347.839 226.849C350.367 202.939 359.496 182.789 373.48 168.772C387.277 154.943 406.72 146.13 432.086 146.13V111.87C398.135 111.87 369.806 123.948 349.227 144.575C328.834 165.016 316.98 192.889 313.769 223.246L347.839 226.849ZM329.953 242.167C330.15 242.169 330.347 242.172 330.542 242.175L331.066 207.92C330.851 207.916 330.636 207.913 330.421 207.91L329.953 242.167Z" fill="#251605" mask="url(#path-1-inside-1_37_7)"/>
<path d="M292.612 241.318C294.471 276.916 266.078 307.792 228.594 309.749C191.109 311.707 159.655 283.956 157.796 248.358C155.937 212.76 184.33 181.884 221.814 179.926C259.299 177.969 290.753 205.72 292.612 241.318Z" fill="white" stroke="#251605" stroke-width="16"/>
<ellipse cx="214.509" cy="245.396" rx="49.7979" ry="59" transform="rotate(-2.98917 214.509 245.396)" fill="#251605"/>
<ellipse cx="199.863" cy="242.156" rx="13.922" ry="30" transform="rotate(-2.98917 199.863 242.156)" fill="white"/>
<path d="M289 329.377C302.437 371.632 351.432 371.83 358.077 325" stroke="#251605" stroke-width="20.4404" stroke-linecap="round"/>
<path d="M500.612 241.318C502.471 276.916 474.078 307.792 436.594 309.749C399.109 311.707 367.655 283.956 365.796 248.358C363.937 212.76 392.33 181.884 429.814 179.926C467.299 177.969 498.753 205.72 500.612 241.318Z" fill="white" stroke="#251605" stroke-width="16"/>
<ellipse cx="422.509" cy="245.396" rx="49.7979" ry="59" transform="rotate(-2.98917 422.509 245.396)" fill="#251605"/>
<ellipse cx="407.863" cy="242.156" rx="13.922" ry="30" transform="rotate(-2.98917 407.863 242.156)" fill="white"/>
<mask id="mask0_37_7" style="mask-type:alpha" maskUnits="userSpaceOnUse" x="169" y="411" width="312" height="100">
<path d="M481 511C325 511 411.156 511 325 511C238.844 511 232 511 169 511C169 455.772 238.844 411 325 411C411.156 411 481 455.772 481 511Z" fill="#D9D9D9"/>
</mask>
<g mask="url(#mask0_37_7)">
<mask id="path-11-inside-2_37_7" fill="white">
<path fill-rule="evenodd" clip-rule="evenodd" d="M330.187 225.039C324.39 170.777 287.817 129 227.933 129C162.472 129 121 178.92 121 240.5C121 262.406 122.869 281.269 129.425 297.039C105.751 323.068 92 355.364 92 392.618C92 495.227 196.318 522 325 522C453.682 522 558 495.227 558 392.618C558 358.557 546.505 328.64 526.441 303.869C535.558 286.811 538 265.663 538 240.5C538 178.92 496.923 129 432.086 129C372.769 129 336.543 170.781 330.804 225.047C330.599 225.044 330.393 225.041 330.187 225.039Z"/>
</mask>
<path fill-rule="evenodd" clip-rule="evenodd" d="M330.187 225.039C324.39 170.777 287.817 129 227.933 129C162.472 129 121 178.92 121 240.5C121 262.406 122.869 281.269 129.425 297.039C105.751 323.068 92 355.364 92 392.618C92 495.227 196.318 522 325 522C453.682 522 558 495.227 558 392.618C558 358.557 546.505 328.64 526.441 303.869C535.558 286.811 538 265.663 538 240.5C538 178.92 496.923 129 432.086 129C372.769 129 336.543 170.781 330.804 225.047C330.599 225.044 330.393 225.041 330.187 225.039Z" fill="#FDF1E1"/>
<path d="M330.187 225.039L313.154 226.858C314.075 235.476 321.287 242.048 329.953 242.167L330.187 225.039ZM129.425 297.039L142.097 308.565C146.567 303.651 147.792 296.596 145.242 290.463L129.425 297.039ZM526.441 303.869L511.334 295.794C508.087 301.869 508.794 309.298 513.13 314.65L526.441 303.869ZM330.804 225.047L330.542 242.175C339.405 242.311 346.907 235.663 347.839 226.849L330.804 225.047ZM227.933 146.13C253.634 146.13 273.323 154.979 287.274 168.828C301.402 182.853 310.604 202.989 313.154 226.858L347.22 223.219C343.973 192.826 331.99 164.943 311.41 144.514C290.654 123.909 262.115 111.87 227.933 111.87V146.13ZM138.13 240.5C138.13 186.996 173.259 146.13 227.933 146.13V111.87C151.684 111.87 103.87 170.844 103.87 240.5H138.13ZM145.242 290.463C140.016 277.892 138.13 261.796 138.13 240.5H103.87C103.87 263.016 105.721 284.645 113.608 303.615L145.242 290.463ZM109.13 392.618C109.13 359.908 121.096 331.654 142.097 308.565L116.753 285.513C90.405 314.481 74.8703 350.821 74.8703 392.618H109.13ZM325 504.87C261.24 504.87 206.097 498.138 167.44 480.242C148.383 471.42 134.014 460.192 124.37 446.336C114.817 432.611 109.13 415.213 109.13 392.618H74.8703C74.8703 421.327 82.2231 445.754 96.251 465.908C110.188 485.93 129.941 500.635 153.048 511.332C198.72 532.475 260.078 539.13 325 539.13V504.87ZM540.87 392.618C540.87 415.213 535.183 432.611 525.63 446.336C515.986 460.192 501.617 471.42 482.56 480.242C443.903 498.138 388.76 504.87 325 504.87V539.13C389.922 539.13 451.28 532.475 496.952 511.332C520.059 500.635 539.812 485.93 553.749 465.908C567.777 445.754 575.13 421.327 575.13 392.618H540.87ZM513.13 314.65C530.842 336.517 540.87 362.666 540.87 392.618H575.13C575.13 354.449 562.169 320.763 539.752 293.087L513.13 314.65ZM520.87 240.5C520.87 265.068 518.368 282.633 511.334 295.794L541.548 311.943C552.748 290.99 555.13 266.259 555.13 240.5H520.87ZM432.086 146.13C485.989 146.13 520.87 186.836 520.87 240.5H555.13C555.13 171.005 507.858 111.87 432.086 111.87V146.13ZM347.839 226.849C350.367 202.939 359.496 182.789 373.48 168.772C387.277 154.943 406.72 146.13 432.086 146.13V111.87C398.135 111.87 369.806 123.948 349.227 144.575C328.834 165.016 316.98 192.889 313.769 223.246L347.839 226.849ZM329.953 242.167C330.15 242.169 330.347 242.172 330.542 242.175L331.066 207.92C330.851 207.916 330.636 207.913 330.421 207.91L329.953 242.167Z" fill="#251605" mask="url(#path-11-inside-2_37_7)"/>
</g>
</svg>
