<svg width="650" height="650" viewBox="0 0 650 650" fill="none" xmlns="http://www.w3.org/2000/svg">
<mask id="path-1-inside-1_37_5" fill="white">
<path fill-rule="evenodd" clip-rule="evenodd" d="M541.108 337.18L540.139 337.113L535.112 345.182C543.892 354.674 549.324 352.995 556.617 350.741C561.556 349.215 567.349 347.425 575.613 348.664C566.136 365.58 557.942 380.343 550.83 393.157L550.829 393.157C540.615 411.558 532.634 425.938 526.292 436.896C511.967 471.436 479.04 499.765 409.182 504.223C277.686 512.613 97.6069 512.722 78.511 380.95C75.3036 358.816 71.8811 347.156 76.0198 339.684C83.1644 326.784 112.842 326.365 205.058 306.093L188.513 213.494L188.488 213.493L170.007 109.213C244.022 97.077 272.893 145.689 300.327 198.557L387.078 193.39L367.001 93.5014C449.173 80.3585 509.852 161.729 517.208 209.634C517.774 211.539 518.337 213.44 518.898 215.332C531.866 259.077 543.605 298.678 564.091 298.669L541.011 335.714C541.043 336.201 541.076 336.689 541.108 337.18Z"/>
</mask>
<path fill-rule="evenodd" clip-rule="evenodd" d="M541.108 337.18L540.139 337.113L535.112 345.182C543.892 354.674 549.324 352.995 556.617 350.741C561.556 349.215 567.349 347.425 575.613 348.664C566.136 365.58 557.942 380.343 550.83 393.157L550.829 393.157C540.615 411.558 532.634 425.938 526.292 436.896C511.967 471.436 479.04 499.765 409.182 504.223C277.686 512.613 97.6069 512.722 78.511 380.95C75.3036 358.816 71.8811 347.156 76.0198 339.684C83.1644 326.784 112.842 326.365 205.058 306.093L188.513 213.494L188.488 213.493L170.007 109.213C244.022 97.077 272.893 145.689 300.327 198.557L387.078 193.39L367.001 93.5014C449.173 80.3585 509.852 161.729 517.208 209.634C517.774 211.539 518.337 213.44 518.898 215.332C531.866 259.077 543.605 298.678 564.091 298.669L541.011 335.714C541.043 336.201 541.076 336.689 541.108 337.18Z" fill="#FDF1E1"/>
<path d="M540.139 337.113L541.23 321.151L531.641 320.495L526.559 328.652L540.139 337.113ZM541.108 337.18L540.018 353.142L558.279 354.39L557.073 336.126L541.108 337.18ZM535.112 345.182L521.532 336.721L515.075 347.084L523.366 356.047L535.112 345.182ZM556.617 350.741L551.893 335.455L556.617 350.741ZM575.613 348.664L589.572 356.484L600.893 336.277L577.987 332.841L575.613 348.664ZM550.83 393.157L564.146 402.026L564.505 401.487L564.819 400.922L550.83 393.157ZM550.829 393.157L537.513 384.288L537.154 384.826L536.84 385.392L550.829 393.157ZM526.292 436.896L512.444 428.882L511.916 429.793L511.513 430.766L526.292 436.896ZM409.182 504.223L408.163 488.255L409.182 504.223ZM78.511 380.95L62.6765 383.244L78.511 380.95ZM76.0198 339.684L90.0163 347.436L90.0163 347.436L76.0198 339.684ZM205.058 306.093L208.493 321.72L223.513 318.418L220.808 303.279L205.058 306.093ZM188.513 213.494L204.264 210.68L202.018 198.113L189.266 197.512L188.513 213.494ZM188.488 213.493L172.734 216.285L174.965 228.873L187.735 229.475L188.488 213.493ZM170.007 109.213L167.419 93.4235L151.425 96.0458L154.253 112.005L170.007 109.213ZM300.327 198.557L286.125 205.927L290.909 215.147L301.278 214.529L300.327 198.557ZM387.078 193.39L388.029 209.361L406.388 208.268L402.764 190.237L387.078 193.39ZM367.001 93.5014L364.474 77.7022L348.033 80.3316L351.314 96.6542L367.001 93.5014ZM517.208 209.634L501.393 212.062L501.559 213.144L501.871 214.193L517.208 209.634ZM518.898 215.332L503.558 219.88L503.558 219.88L518.898 215.332ZM564.091 298.669L577.671 307.13L592.919 282.657L564.084 282.669L564.091 298.669ZM541.011 335.714L527.431 327.253L524.7 331.636L525.047 336.788L541.011 335.714ZM539.048 353.076L540.018 353.142L542.199 321.217L541.23 321.151L539.048 353.076ZM548.692 353.643L553.719 345.574L526.559 328.652L521.532 336.721L548.692 353.643ZM551.893 335.455C549.889 336.074 549.028 336.322 548.353 336.454C547.863 336.55 548.109 336.444 548.703 336.53C549.37 336.626 549.696 336.844 549.53 336.742C549.253 336.572 548.373 335.957 546.857 334.318L523.366 356.047C529.112 362.259 535.775 366.998 544.141 368.203C551.695 369.291 558.416 366.932 561.341 366.028L551.893 335.455ZM577.987 332.841C565.93 331.033 557.183 333.82 551.893 335.455L561.341 366.028C565.93 364.61 568.769 363.817 573.24 364.487L577.987 332.841ZM564.819 400.922C571.932 388.107 580.112 373.369 589.572 356.484L561.655 340.844C552.161 357.79 543.952 372.579 536.84 385.392L564.819 400.922ZM564.146 402.026L564.146 402.026L537.513 384.287L537.513 384.288L564.146 402.026ZM540.14 444.91C546.571 433.799 554.634 419.271 564.819 400.922L536.84 385.392C526.597 403.845 518.697 418.077 512.444 428.882L540.14 444.91ZM511.513 430.766C505.49 445.289 495.704 458.312 479.96 468.349C464.048 478.494 441.154 486.15 408.163 488.255L410.201 520.19C447.067 517.838 475.566 509.101 497.163 495.332C518.929 481.455 532.769 463.043 541.072 443.026L511.513 430.766ZM408.163 488.255C342.406 492.451 266.696 494.363 205.447 479.593C174.952 472.239 149.16 460.997 130.108 444.794C111.401 428.884 98.5517 407.679 94.3456 378.655L62.6765 383.244C68.0183 420.107 84.8395 448.302 109.377 469.171C133.57 489.746 164.597 502.66 197.946 510.701C264.384 526.722 344.462 524.385 410.201 520.19L408.163 488.255ZM94.3456 378.655C92.5489 366.256 91.1364 359.529 90.4116 353.042C89.7116 346.777 90.5585 346.457 90.0163 347.436L62.0233 331.931C57.3423 340.383 57.8311 349.629 58.6095 356.596C59.3632 363.34 61.2657 373.51 62.6765 383.244L94.3456 378.655ZM90.0163 347.436C89.321 348.691 88.7491 348.121 92.3622 346.622C96.1169 345.063 102.113 343.414 111.989 341.298C121.715 339.214 134.002 336.914 150.058 333.784C165.989 330.679 185.269 326.825 208.493 321.72L201.622 290.466C178.738 295.497 159.728 299.297 143.936 302.375C128.268 305.429 115.398 307.841 105.285 310.008C95.3214 312.143 86.7953 314.285 80.0943 317.066C73.2516 319.907 66.2909 324.226 62.0233 331.931L90.0163 347.436ZM172.762 216.308L189.307 308.907L220.808 303.279L204.264 210.68L172.762 216.308ZM187.735 229.475L187.76 229.476L189.266 197.512L189.241 197.511L187.735 229.475ZM154.253 112.005L172.734 216.285L204.243 210.701L185.762 106.421L154.253 112.005ZM314.529 191.188C300.968 165.054 285.655 136.952 263.114 117.417C239.436 96.898 208.864 86.628 167.419 93.4235L172.596 125.002C205.166 119.662 226.036 127.63 242.157 141.6C259.413 156.555 272.253 179.193 286.125 205.927L314.529 191.188ZM386.126 177.418L299.375 182.586L301.278 214.529L388.029 209.361L386.126 177.418ZM351.314 96.6542L371.391 196.543L402.764 190.237L382.687 90.3485L351.314 96.6542ZM533.022 207.206C528.704 179.083 509.57 143.662 481.098 116.997C452.283 90.0109 411.82 70.1295 364.474 77.7022L369.528 109.301C404.354 103.73 435.316 117.963 459.224 140.353C483.473 163.064 498.356 192.28 501.393 212.062L533.022 207.206ZM534.239 210.785C533.678 208.893 533.113 206.987 532.544 205.074L501.871 214.193C502.435 216.092 502.997 217.986 503.558 219.88L534.239 210.785ZM564.084 282.669C564.713 282.669 564.056 283.142 561.799 280.771C559.367 278.217 556.448 273.711 553.194 266.685C546.677 252.612 540.842 233.061 534.239 210.785L503.558 219.88C509.922 241.349 516.441 263.471 524.156 280.132C528.019 288.473 532.686 296.6 538.622 302.836C544.733 309.255 553.226 314.674 564.098 314.669L564.084 282.669ZM554.59 344.175L577.671 307.13L550.511 290.208L527.431 327.253L554.59 344.175ZM557.073 336.126C557.041 335.629 557.008 335.134 556.975 334.641L525.047 336.788C525.079 337.268 525.111 337.749 525.143 338.233L557.073 336.126Z" fill="#251605" mask="url(#path-1-inside-1_37_5)"/>
<mask id="path-3-inside-2_37_5" fill="white">
<path fill-rule="evenodd" clip-rule="evenodd" d="M541.108 337.344L540.139 337.278L535.112 345.346C543.892 354.838 549.324 353.159 556.617 350.906C561.556 349.379 567.349 347.589 575.613 348.829C577.913 400.512 554.822 435.351 519.49 450.565C502.482 478.762 469.681 500.527 409.182 504.387C277.686 512.777 97.6069 512.887 78.511 381.114C75.3036 358.981 71.8811 347.32 76.0198 339.848C83.1644 326.949 112.842 326.53 205.058 306.257L188.513 213.658L188.488 213.657L170.007 109.377C244.022 97.2413 272.893 145.854 300.327 198.722L387.078 193.554L367.001 93.6657C449.173 80.5228 509.852 161.894 517.208 209.798C517.774 211.703 518.337 213.604 518.898 215.497C531.866 259.242 543.605 298.843 564.091 298.834L541.011 335.879C541.043 336.365 541.076 336.854 541.108 337.344Z"/>
</mask>
<path fill-rule="evenodd" clip-rule="evenodd" d="M541.108 337.344L540.139 337.278L535.112 345.346C543.892 354.838 549.324 353.159 556.617 350.906C561.556 349.379 567.349 347.589 575.613 348.829C577.913 400.512 554.822 435.351 519.49 450.565C502.482 478.762 469.681 500.527 409.182 504.387C277.686 512.777 97.6069 512.887 78.511 381.114C75.3036 358.981 71.8811 347.32 76.0198 339.848C83.1644 326.949 112.842 326.53 205.058 306.257L188.513 213.658L188.488 213.657L170.007 109.377C244.022 97.2413 272.893 145.854 300.327 198.722L387.078 193.554L367.001 93.6657C449.173 80.5228 509.852 161.894 517.208 209.798C517.774 211.703 518.337 213.604 518.898 215.497C531.866 259.242 543.605 298.843 564.091 298.834L541.011 335.879C541.043 336.365 541.076 336.854 541.108 337.344Z" fill="#FDF1E1"/>
<path d="M540.139 337.278L541.23 321.315L531.641 320.66L526.559 328.817L540.139 337.278ZM541.108 337.344L540.018 353.307L558.279 354.554L557.073 336.29L541.108 337.344ZM535.112 345.346L521.532 336.886L515.075 347.248L523.366 356.211L535.112 345.346ZM556.617 350.906L551.893 335.619L556.617 350.906ZM575.613 348.829L591.597 348.117L591.012 334.959L577.987 333.006L575.613 348.829ZM519.49 450.565L513.162 435.869L508.443 437.901L505.789 442.301L519.49 450.565ZM409.182 504.387L410.201 520.355L409.182 504.387ZM78.511 381.114L62.6765 383.409L78.511 381.114ZM76.0198 339.848L90.0163 347.6L90.0163 347.6L76.0198 339.848ZM205.058 306.257L208.493 321.884L223.513 318.582L220.808 303.443L205.058 306.257ZM188.513 213.658L204.264 210.844L202.018 198.277L189.266 197.676L188.513 213.658ZM188.488 213.657L172.734 216.449L174.965 229.038L187.735 229.639L188.488 213.657ZM170.007 109.377L167.419 93.5878L151.425 96.2102L154.253 112.169L170.007 109.377ZM300.327 198.722L286.125 206.091L290.909 215.311L301.278 214.693L300.327 198.722ZM387.078 193.554L388.029 209.526L406.388 208.432L402.764 190.401L387.078 193.554ZM367.001 93.6657L364.474 77.8665L348.033 80.4959L351.314 96.8185L367.001 93.6657ZM517.208 209.798L501.393 212.226L501.559 213.308L501.871 214.358L517.208 209.798ZM518.898 215.497L503.558 220.044L503.558 220.044L518.898 215.497ZM564.091 298.834L577.671 307.294L592.919 282.821L564.084 282.834L564.091 298.834ZM541.011 335.879L527.431 327.418L524.7 331.8L525.047 336.952L541.011 335.879ZM539.048 353.24L540.018 353.307L542.199 321.381L541.23 321.315L539.048 353.24ZM548.692 353.807L553.719 345.739L526.559 328.817L521.532 336.886L548.692 353.807ZM551.893 335.619C549.889 336.238 549.028 336.487 548.353 336.618C547.863 336.714 548.109 336.608 548.703 336.694C549.37 336.79 549.696 337.008 549.53 336.906C549.253 336.736 548.373 336.121 546.857 334.482L523.366 356.211C529.112 362.423 535.775 367.162 544.141 368.367C551.695 369.455 558.416 367.096 561.341 366.192L551.893 335.619ZM577.987 333.006C565.93 331.197 557.183 333.984 551.893 335.619L561.341 366.192C565.93 364.774 568.769 363.981 573.24 364.652L577.987 333.006ZM525.817 465.26C568.053 447.074 594.152 405.534 591.597 348.117L559.629 349.54C561.674 395.489 541.591 423.628 513.162 435.869L525.817 465.26ZM505.789 442.301C492.193 464.842 464.95 484.796 408.163 488.419L410.201 520.355C474.412 516.257 512.771 492.682 533.19 458.828L505.789 442.301ZM408.163 488.419C342.406 492.615 266.696 494.527 205.447 479.757C174.952 472.404 149.16 461.161 130.108 444.959C111.401 429.049 98.5517 407.843 94.3456 378.819L62.6765 383.409C68.0183 420.271 84.8395 448.467 109.377 469.335C133.57 489.91 164.597 502.824 197.946 510.866C264.384 526.887 344.462 524.549 410.201 520.355L408.163 488.419ZM94.3456 378.819C92.5489 366.421 91.1364 359.693 90.4116 353.206C89.7116 346.942 90.5585 346.621 90.0163 347.6L62.0233 332.096C57.3423 340.547 57.8311 349.793 58.6095 356.76C59.3632 363.505 61.2657 373.674 62.6765 383.409L94.3456 378.819ZM90.0163 347.6C89.321 348.856 88.7491 348.286 92.3622 346.786C96.1169 345.227 102.113 343.579 111.989 341.462C121.715 339.378 134.002 337.078 150.058 333.949C165.989 330.843 185.269 326.989 208.493 321.884L201.622 290.63C178.738 295.661 159.728 299.462 143.936 302.54C128.268 305.594 115.398 308.005 105.285 310.173C95.3214 312.308 86.7953 314.449 80.0943 317.231C73.2516 320.071 66.2909 324.391 62.0233 332.096L90.0163 347.6ZM172.762 216.473L189.307 309.071L220.808 303.443L204.264 210.844L172.762 216.473ZM187.735 229.639L187.76 229.641L189.266 197.676L189.241 197.675L187.735 229.639ZM154.253 112.169L172.734 216.449L204.243 210.865L185.762 106.585L154.253 112.169ZM314.529 191.352C300.968 165.218 285.655 137.116 263.114 117.582C239.436 97.0623 208.864 86.7923 167.419 93.5878L172.596 125.166C205.166 119.826 226.036 127.794 242.157 141.764C259.413 156.719 272.253 179.357 286.125 206.091L314.529 191.352ZM386.126 177.582L299.375 182.75L301.278 214.693L388.029 209.526L386.126 177.582ZM351.314 96.8185L371.391 196.707L402.764 190.401L382.687 90.5128L351.314 96.8185ZM533.022 207.37C528.704 179.247 509.57 143.826 481.098 117.161C452.283 90.1752 411.82 70.2938 364.474 77.8665L369.528 109.465C404.354 103.895 435.316 118.127 459.224 140.517C483.473 163.228 498.356 192.444 501.393 212.226L533.022 207.37ZM534.239 210.949C533.678 209.057 533.113 207.151 532.544 205.239L501.871 214.358C502.435 216.256 502.997 218.15 503.558 220.044L534.239 210.949ZM564.084 282.834C564.713 282.833 564.056 283.306 561.799 280.935C559.367 278.381 556.448 273.876 553.194 266.849C546.677 252.776 540.842 233.225 534.239 210.949L503.558 220.044C509.922 241.513 516.441 263.635 524.156 280.296C528.019 288.637 532.686 296.764 538.622 303C544.733 309.419 553.226 314.838 564.098 314.834L564.084 282.834ZM554.59 344.339L577.671 307.294L550.511 290.373L527.431 327.418L554.59 344.339ZM557.073 336.29C557.041 335.794 557.008 335.299 556.975 334.805L525.047 336.952C525.079 337.432 525.111 337.914 525.143 338.397L557.073 336.29Z" fill="#251605" mask="url(#path-3-inside-2_37_5)"/>
<mask id="mask0_37_5" style="mask-type:alpha" maskUnits="userSpaceOnUse" x="93" y="92" width="463" height="385">
<path d="M554.077 267.777C565.628 383.169 499.436 476.301 354.67 476.365C179.17 476.442 101.144 454.079 93.0775 267.98C93.0221 142.474 175.233 92.3411 320 92.2772C464.767 92.2133 490.535 172.702 554.077 267.777Z" fill="#D9D9D9"/>
</mask>
<g mask="url(#mask0_37_5)">
<mask id="path-6-inside-3_37_5" fill="white">
<path fill-rule="evenodd" clip-rule="evenodd" d="M541.11 340.344L540.14 340.278L535.113 348.347C543.893 357.838 549.326 356.159 556.618 353.906C561.558 352.379 567.351 350.589 575.615 351.829C577.915 403.512 554.824 438.351 519.491 453.565C502.484 481.762 469.683 503.527 409.183 507.387C277.687 515.777 97.6084 515.887 78.5125 384.114C75.305 361.981 71.8825 350.32 76.0212 342.848C83.1659 329.949 112.844 329.53 205.059 309.257L188.514 216.659L188.49 216.657L170.009 112.377C244.024 100.241 272.895 148.854 300.328 201.722L387.079 196.554L367.002 96.6658C449.175 83.5229 509.854 164.894 517.209 212.798C517.775 214.704 518.339 216.604 518.9 218.497C531.867 262.242 543.606 301.843 564.093 301.834L541.012 338.879C541.045 339.365 541.077 339.854 541.11 340.344Z"/>
</mask>
<path fill-rule="evenodd" clip-rule="evenodd" d="M541.11 340.344L540.14 340.278L535.113 348.347C543.893 357.838 549.326 356.159 556.618 353.906C561.558 352.379 567.351 350.589 575.615 351.829C577.915 403.512 554.824 438.351 519.491 453.565C502.484 481.762 469.683 503.527 409.183 507.387C277.687 515.777 97.6084 515.887 78.5125 384.114C75.305 361.981 71.8825 350.32 76.0212 342.848C83.1659 329.949 112.844 329.53 205.059 309.257L188.514 216.659L188.49 216.657L170.009 112.377C244.024 100.241 272.895 148.854 300.328 201.722L387.079 196.554L367.002 96.6658C449.175 83.5229 509.854 164.894 517.209 212.798C517.775 214.704 518.339 216.604 518.9 218.497C531.867 262.242 543.606 301.843 564.093 301.834L541.012 338.879C541.045 339.365 541.077 339.854 541.11 340.344Z" fill="#E69D77"/>
<path d="M540.14 340.278L541.231 324.315L531.643 323.66L526.56 331.817L540.14 340.278ZM541.11 340.344L540.019 356.307L558.28 357.554L557.075 339.29L541.11 340.344ZM535.113 348.347L521.533 339.886L515.077 350.248L523.367 359.211L535.113 348.347ZM556.618 353.906L551.894 338.619L556.618 353.906ZM575.615 351.829L591.599 351.117L591.013 337.959L577.988 336.006L575.615 351.829ZM519.491 453.565L513.163 438.869L508.444 440.901L505.79 445.301L519.491 453.565ZM409.183 507.387L410.202 523.355L409.183 507.387ZM78.5125 384.114L62.6779 386.409L78.5125 384.114ZM76.0212 342.848L90.0177 350.6L90.0177 350.6L76.0212 342.848ZM205.059 309.257L208.494 324.884L223.514 321.582L220.81 306.443L205.059 309.257ZM188.514 216.659L204.265 213.844L202.02 201.277L189.268 200.676L188.514 216.659ZM188.49 216.657L172.735 219.449L174.966 232.038L187.737 232.64L188.49 216.657ZM170.009 112.377L167.42 96.5879L151.426 99.2103L154.254 115.169L170.009 112.377ZM300.328 201.722L286.126 209.091L290.911 218.311L301.28 217.693L300.328 201.722ZM387.079 196.554L388.031 212.526L406.39 211.432L402.766 193.401L387.079 196.554ZM367.002 96.6658L364.475 80.8666L348.035 83.4961L351.316 99.8187L367.002 96.6658ZM517.209 212.798L501.394 215.226L501.56 216.308L501.872 217.358L517.209 212.798ZM518.9 218.497L503.56 223.044L503.56 223.044L518.9 218.497ZM564.093 301.834L577.673 310.295L592.921 285.821L564.086 285.834L564.093 301.834ZM541.012 338.879L527.432 330.418L524.702 334.8L525.048 339.952L541.012 338.879ZM539.05 356.241L540.019 356.307L542.2 324.381L541.231 324.315L539.05 356.241ZM548.693 356.807L553.72 348.739L526.56 331.817L521.533 339.886L548.693 356.807ZM551.894 338.619C549.891 339.238 549.029 339.487 548.354 339.619C547.864 339.714 548.11 339.609 548.705 339.694C549.371 339.79 549.697 340.008 549.531 339.906C549.255 339.736 548.375 339.121 546.859 337.482L523.367 359.211C529.114 365.423 535.777 370.162 544.142 371.367C551.697 372.456 558.417 370.097 561.342 369.193L551.894 338.619ZM577.988 336.006C565.931 334.197 557.184 336.984 551.894 338.619L561.342 369.193C565.932 367.774 568.77 366.981 573.241 367.652L577.988 336.006ZM525.819 468.26C568.055 450.074 594.154 408.534 591.599 351.117L559.631 352.54C561.675 398.49 541.592 426.628 513.163 438.869L525.819 468.26ZM505.79 445.301C492.194 467.843 464.952 487.796 408.165 491.42L410.202 523.355C474.414 519.258 512.773 495.682 533.192 461.828L505.79 445.301ZM408.165 491.42C342.407 495.615 266.698 497.527 205.449 482.757C174.954 475.404 149.162 464.162 130.11 447.959C111.403 432.049 98.5532 410.844 94.3471 381.819L62.6779 386.409C68.0198 423.271 84.841 451.467 109.379 472.335C133.572 492.911 164.598 505.824 197.947 513.866C264.385 529.887 344.463 527.549 410.202 523.355L408.165 491.42ZM94.3471 381.819C92.5504 369.421 91.1379 362.693 90.4131 356.207C89.7131 349.942 90.56 349.621 90.0177 350.6L62.0247 335.096C57.3438 343.547 57.8325 352.793 58.611 359.76C59.3647 366.505 61.2672 376.674 62.6779 386.409L94.3471 381.819ZM90.0177 350.6C89.3224 351.856 88.7506 351.286 92.3637 349.786C96.1184 348.227 102.115 346.579 111.991 344.462C121.717 342.378 134.003 340.078 150.059 336.949C165.99 333.844 185.271 329.99 208.494 324.884L201.624 293.63C178.739 298.661 159.729 302.462 143.937 305.54C128.269 308.594 115.4 311.006 105.286 313.173C95.3229 315.308 86.7968 317.449 80.0958 320.231C73.2531 323.071 66.2924 327.391 62.0247 335.096L90.0177 350.6ZM172.764 219.473L189.308 312.071L220.81 306.443L204.265 213.844L172.764 219.473ZM187.737 232.64L187.761 232.641L189.268 200.676L189.243 200.675L187.737 232.64ZM154.254 115.169L172.735 219.449L204.244 213.865L185.763 109.585L154.254 115.169ZM314.53 194.352C300.969 168.218 285.656 140.116 263.115 120.582C239.438 100.062 208.865 89.7925 167.42 96.5879L172.598 128.166C205.168 122.826 226.038 130.794 242.158 144.764C259.415 159.719 272.254 182.357 286.126 209.091L314.53 194.352ZM386.128 180.582L299.377 185.75L301.28 217.693L388.031 212.526L386.128 180.582ZM351.316 99.8187L371.393 199.707L402.766 193.401L382.688 93.5129L351.316 99.8187ZM533.024 210.37C528.706 182.247 509.571 146.826 481.099 120.161C452.285 93.1753 411.821 73.2939 364.475 80.8666L369.529 112.465C404.355 106.895 435.318 121.127 459.225 143.517C483.474 166.228 498.357 195.445 501.394 215.226L533.024 210.37ZM534.24 213.949C533.679 212.058 533.114 210.151 532.546 208.239L501.872 217.358C502.437 219.256 502.998 221.15 503.56 223.044L534.24 213.949ZM564.086 285.834C564.714 285.833 564.058 286.306 561.8 283.935C559.369 281.381 556.449 276.876 553.195 269.85C546.678 255.776 540.843 236.225 534.24 213.949L503.56 223.044C509.924 244.513 516.442 266.635 524.158 283.297C528.021 291.637 532.687 299.765 538.624 306C544.735 312.419 553.228 317.839 564.1 317.834L564.086 285.834ZM554.592 347.34L577.673 310.295L550.513 293.373L527.432 330.418L554.592 347.34ZM557.075 339.29C557.042 338.794 557.009 338.299 556.976 337.805L525.048 339.952C525.08 340.432 525.112 340.914 525.144 341.398L557.075 339.29Z" fill="#251605" mask="url(#path-6-inside-3_37_5)"/>
</g>
<path d="M278.103 324.296C278.118 359.942 248.167 389.309 210.631 389.325C173.096 389.342 143.118 360.002 143.103 324.355C143.087 288.708 173.039 259.342 210.574 259.325C248.109 259.309 278.087 288.649 278.103 324.296Z" fill="white" stroke="#251605" stroke-width="16"/>
<ellipse cx="199.893" cy="324.33" rx="49.7979" ry="59" transform="rotate(-0.0252995 199.893 324.33)" fill="#251605"/>
<ellipse cx="185.434" cy="320.336" rx="13.922" ry="30" transform="rotate(-0.0252995 185.434 320.336)" fill="white"/>
<path d="M485.618 328.15C485.633 363.797 455.682 393.163 418.146 393.18C380.611 393.196 350.633 363.856 350.618 328.21C350.602 292.563 380.554 263.196 418.089 263.18C455.624 263.163 485.602 292.503 485.618 328.15Z" fill="white" stroke="#251605" stroke-width="16"/>
<ellipse cx="407.408" cy="328.185" rx="49.7979" ry="59" transform="rotate(-0.0252995 407.408 328.185)" fill="#251605"/>
<ellipse cx="392.949" cy="324.191" rx="13.922" ry="30" transform="rotate(-0.0252995 392.949 324.191)" fill="white"/>
<path d="M85.1117 344.881L120.608 336.365L120.624 372.865L89.1271 379.879L85.1117 344.881Z" fill="#251605"/>
<path d="M272.7 417.978C283.935 460.871 332.853 463.602 341.911 417.178" stroke="#251605" stroke-width="20.4404" stroke-linecap="round"/>
<path d="M222.354 215.32L209.023 144.326C232.363 147.538 262.941 193.207 267.966 210.467L222.354 215.32Z" fill="#FDF1E1" stroke="#251605" stroke-width="14.7302"/>
<path d="M214.617 213.943L202.024 146.329C223.564 140.934 254.285 189.344 262.165 207.845L214.617 213.943Z" fill="#FDF1E1"/>
<path d="M426.847 198.23L413.516 127.236C436.855 130.448 467.434 176.117 472.459 193.376L426.847 198.23Z" fill="#FDF1E1" stroke="#251605" stroke-width="14.7302"/>
<path d="M419.11 196.852L406.516 129.239C428.057 123.844 458.778 172.254 466.658 190.755L419.11 196.852Z" fill="#FDF1E1"/>
<path d="M369.083 281.255L348.073 257.765" stroke="#251605" stroke-width="12"/>
<path d="M412.896 269.047L407.563 235.238" stroke="#251605" stroke-width="12"/>
<path d="M449.593 266.567L464.065 240.214" stroke="#251605" stroke-width="12"/>
<path d="M167.681 272.994L147.07 251.661" stroke="#251605" stroke-width="12"/>
<path d="M205.556 258.445L199.306 232.33" stroke="#251605" stroke-width="12"/>
<path d="M244.075 261.953L249.693 239.616" stroke="#251605" stroke-width="12"/>
</svg>
