<svg width="650" height="650" viewBox="0 0 650 650" fill="none" xmlns="http://www.w3.org/2000/svg">
<mask id="path-1-inside-1_37_9" fill="white">
<path d="M319.252 315.675C334.796 435.892 287.542 456.902 207.196 472.25C137.85 485.498 71.7622 423.573 100.575 320.757C129.388 217.941 174.334 83.5997 251.53 101.626C291.308 115.822 303.027 190.198 319.252 315.675Z"/>
</mask>
<path d="M319.252 315.675C334.796 435.892 287.542 456.902 207.196 472.25C137.85 485.498 71.7622 423.573 100.575 320.757C129.388 217.941 174.334 83.5997 251.53 101.626C291.308 115.822 303.027 190.198 319.252 315.675Z" fill="#B49FCC"/>
<path d="M319.252 315.675L303.21 318.254L319.252 315.675ZM207.196 472.25L204.691 456.717L207.196 472.25ZM251.53 101.626L257.576 86.728C257.011 86.5265 256.434 86.3569 255.848 86.2199L251.53 101.626ZM303.21 318.254C310.822 377.124 302.204 406.394 287.215 423.102C271.594 440.515 245.336 448.952 204.691 456.717L209.701 487.784C249.402 480.2 286.944 470.458 311.151 443.474C335.988 415.787 343.225 374.444 335.293 313.097L303.21 318.254ZM204.691 456.717C175.967 462.204 147.946 452.212 129.896 429.907C111.927 407.703 102.858 371.849 116.156 324.395L84.9942 317.119C69.4797 372.481 79.0472 418.997 104.256 450.147C129.383 481.198 169.079 495.544 209.701 487.784L204.691 456.717ZM116.156 324.395C130.579 272.927 148.599 215.326 172.053 173.007C183.797 151.817 196.175 135.831 208.96 126.221C221.12 117.08 233.376 113.802 247.213 117.033L255.848 86.2199C231.086 80.4376 208.776 87.1916 189.896 101.383C171.641 115.105 156.508 135.751 143.765 158.744C118.244 204.793 99.3837 265.771 84.9942 317.119L116.156 324.395ZM245.484 116.525C257.4 120.777 268.683 135.574 278.602 171.584C288.192 206.406 295.06 255.221 303.21 318.254L335.293 313.097C327.219 250.653 320.115 199.541 309.845 162.256C299.903 126.16 285.438 96.6713 257.576 86.728L245.484 116.525Z" fill="black" mask="url(#path-1-inside-1_37_9)"/>
<path d="M294.233 325.556C304.448 426.251 273.693 436.528 210.41 450.514C155.791 462.585 98.3046 419.518 122.6 332.821C146.896 246.124 184.158 116.973 244.421 131.045C275.392 142.415 283.571 220.455 294.233 325.556Z" fill="#FDF1E1"/>
<mask id="path-4-inside-2_37_9" fill="white">
<path d="M329.749 314.675C314.205 434.892 361.458 455.902 441.804 471.25C511.151 484.498 577.238 422.573 548.425 319.757C519.613 216.941 474.667 82.5997 397.47 100.626C357.693 114.822 345.973 189.198 329.749 314.675Z"/>
</mask>
<path d="M329.749 314.675C314.205 434.892 361.458 455.902 441.804 471.25C511.151 484.498 577.238 422.573 548.425 319.757C519.613 216.941 474.667 82.5997 397.47 100.626C357.693 114.822 345.973 189.198 329.749 314.675Z" fill="#B49FCC"/>
<path d="M329.749 314.675L345.79 317.254L329.749 314.675ZM441.804 471.25L444.309 455.717L441.804 471.25ZM397.47 100.626L391.425 85.728C391.989 85.5265 392.566 85.3569 393.153 85.2199L397.47 100.626ZM345.79 317.254C338.178 376.124 346.796 405.394 361.786 422.102C377.406 439.515 403.664 447.952 444.309 455.717L439.3 486.784C399.598 479.2 362.057 469.458 337.85 442.474C313.012 414.787 305.775 373.444 313.708 312.097L345.79 317.254ZM444.309 455.717C473.034 461.204 501.054 451.212 519.104 428.907C537.073 406.703 546.143 370.849 532.845 323.395L564.006 316.119C579.521 371.481 569.953 417.997 544.745 449.147C519.618 480.198 479.921 494.544 439.3 486.784L444.309 455.717ZM532.845 323.395C518.421 271.927 500.402 214.326 476.948 172.007C465.204 150.817 452.825 134.831 440.041 125.221C427.881 116.08 415.624 112.802 401.788 116.033L393.153 85.2199C417.915 79.4376 440.225 86.1916 459.104 100.383C477.359 114.105 492.492 134.751 505.236 157.744C530.757 203.793 549.617 264.771 564.006 316.119L532.845 323.395ZM403.516 115.525C391.601 119.777 380.317 134.574 370.399 170.584C360.808 205.406 353.94 254.221 345.79 317.254L313.708 312.097C321.782 249.653 328.886 198.541 339.155 161.256C349.097 125.16 363.562 95.6713 391.425 85.728L403.516 115.525Z" fill="black" mask="url(#path-4-inside-2_37_9)"/>
<path d="M354.767 324.556C344.551 425.251 375.306 435.528 438.59 449.514C493.209 461.585 550.695 418.518 526.399 331.821C502.104 245.124 464.841 115.973 404.579 130.045C373.607 141.415 365.429 219.455 354.767 324.556Z" fill="#FDF1E1"/>
<mask id="path-7-inside-3_37_9" fill="white">
<path fill-rule="evenodd" clip-rule="evenodd" d="M431.973 239.108C434.697 244.445 434.531 250.056 432.797 255.616C451.109 244.17 472.382 242.511 481.602 255.149C486.989 268.52 480.408 280.278 471.912 290.29C476.981 290.386 480.999 292.036 482.943 295.506C485.184 306.262 473.641 315.21 464.634 322.192L464.632 322.194C463.344 323.192 462.109 324.149 460.973 325.067C460.276 325.629 459.597 326.208 458.935 326.799C485.189 354.659 501 390.589 501 429.808C501 541.374 420.411 569.486 321 569.486C221.589 569.486 141 533.907 141 429.808C141 391.34 156.211 356.036 181.568 328.408C180.725 327.742 179.839 327.055 178.927 326.348L178.927 326.348L178.927 326.348C169.92 319.366 158.377 310.418 160.618 299.662C162.562 296.192 166.581 294.542 171.649 294.446C163.153 284.435 156.573 272.676 161.959 259.305C171.179 246.668 192.453 248.326 210.765 259.772C209.031 254.212 208.865 248.601 211.588 243.264C221.773 232.483 246.407 244.068 261.021 264.678C263.738 268.508 266.073 272.506 268.01 276.546C284.763 271.956 302.558 269.486 321 269.486C339.348 269.486 357.055 271.931 373.732 276.475C375.96 271.058 378.91 265.641 382.54 260.522C397.155 239.912 421.789 228.327 431.973 239.108Z"/>
</mask>
<path fill-rule="evenodd" clip-rule="evenodd" d="M431.973 239.108C434.697 244.445 434.531 250.056 432.797 255.616C451.109 244.17 472.382 242.511 481.602 255.149C486.989 268.52 480.408 280.278 471.912 290.29C476.981 290.386 480.999 292.036 482.943 295.506C485.184 306.262 473.641 315.21 464.634 322.192L464.632 322.194C463.344 323.192 462.109 324.149 460.973 325.067C460.276 325.629 459.597 326.208 458.935 326.799C485.189 354.659 501 390.589 501 429.808C501 541.374 420.411 569.486 321 569.486C221.589 569.486 141 533.907 141 429.808C141 391.34 156.211 356.036 181.568 328.408C180.725 327.742 179.839 327.055 178.927 326.348L178.927 326.348L178.927 326.348C169.92 319.366 158.377 310.418 160.618 299.662C162.562 296.192 166.581 294.542 171.649 294.446C163.153 284.435 156.573 272.676 161.959 259.305C171.179 246.668 192.453 248.326 210.765 259.772C209.031 254.212 208.865 248.601 211.588 243.264C221.773 232.483 246.407 244.068 261.021 264.678C263.738 268.508 266.073 272.506 268.01 276.546C284.763 271.956 302.558 269.486 321 269.486C339.348 269.486 357.055 271.931 373.732 276.475C375.96 271.058 378.91 265.641 382.54 260.522C397.155 239.912 421.789 228.327 431.973 239.108Z" fill="#B49FCC"/>
<path d="M432.797 255.616L417.523 250.852L404.667 292.067L441.277 269.184L432.797 255.616ZM431.973 239.108L446.225 231.836L445.181 229.79L443.604 228.12L431.973 239.108ZM481.602 255.149L496.443 249.17L495.7 247.325L494.528 245.719L481.602 255.149ZM471.912 290.29L459.713 279.937L437.891 305.652L471.611 306.287L471.912 290.29ZM482.943 295.506L498.607 292.243L498.105 289.833L496.902 287.686L482.943 295.506ZM464.634 322.192L454.832 309.546L454.78 309.587L454.728 309.627L464.634 322.192ZM464.632 322.194L474.434 334.839L474.486 334.799L474.538 334.758L464.632 322.194ZM460.973 325.067L471.023 337.516L471.023 337.516L460.973 325.067ZM458.935 326.799L448.278 314.865L436.019 325.811L447.291 337.772L458.935 326.799ZM181.568 328.408L193.356 339.227L205.002 326.538L191.491 315.857L181.568 328.408ZM178.927 326.348L168.932 338.842L169.028 338.919L169.125 338.994L178.927 326.348ZM178.927 326.348L167.613 337.662L168.24 338.288L168.932 338.842L178.927 326.348ZM178.927 326.348L190.241 315.034L189.527 314.321L188.729 313.702L178.927 326.348ZM160.618 299.662L146.659 291.842L145.456 293.989L144.954 296.399L160.618 299.662ZM171.649 294.446L171.951 310.443L205.672 309.808L183.849 284.093L171.649 294.446ZM161.959 259.305L149.034 249.875L147.861 251.481L147.118 253.326L161.959 259.305ZM210.765 259.772L202.284 273.34L238.894 296.223L226.039 255.008L210.765 259.772ZM211.588 243.264L199.958 232.276L198.38 233.946L197.336 235.992L211.588 243.264ZM261.021 264.678L247.97 273.933L261.021 264.678ZM268.01 276.546L253.583 283.464L259.358 295.506L272.238 291.977L268.01 276.546ZM373.732 276.475L369.526 291.912L383.157 295.627L388.53 282.561L373.732 276.475ZM382.54 260.522L395.592 269.777V269.777L382.54 260.522ZM448.071 260.38C450.648 252.12 451.386 241.95 446.225 231.836L417.721 246.38C417.947 246.822 418.048 247.219 418.064 247.754C418.082 248.37 417.986 249.368 417.523 250.852L448.071 260.38ZM494.528 245.719C485.856 233.832 472.319 229.989 460.124 230.359C447.973 230.727 435.353 235.15 424.316 242.048L441.277 269.184C448.553 264.636 455.726 262.507 461.094 262.344C466.419 262.182 468.129 263.828 468.677 264.579L494.528 245.719ZM484.111 300.643C493.267 289.855 505.427 271.47 496.443 249.17L466.761 261.128C467.829 263.776 467.784 266.036 466.847 268.735C465.755 271.884 463.427 275.561 459.713 279.937L484.111 300.643ZM496.902 287.686C490.974 277.104 479.962 274.439 472.214 274.293L471.611 306.287C472.592 306.306 472.577 306.471 471.958 306.189C471.615 306.032 471.093 305.738 470.52 305.232C469.934 304.714 469.399 304.067 468.984 303.326L496.902 287.686ZM474.437 334.837C478.636 331.583 485.233 326.553 490.272 320.539C495.334 314.496 501.187 304.629 498.607 292.243L467.279 298.769C466.94 297.139 468.142 297.124 465.742 299.989C463.317 302.884 459.64 305.819 454.832 309.546L474.437 334.837ZM474.538 334.758L474.541 334.756L454.728 309.627L454.725 309.629L474.538 334.758ZM471.023 337.516C472.013 336.717 473.118 335.859 474.434 334.839L454.83 309.548C453.57 310.524 452.204 311.582 450.922 312.617L471.023 337.516ZM469.592 338.734C470.073 338.304 470.55 337.898 471.023 337.516L450.922 312.617C450.002 313.36 449.121 314.113 448.278 314.865L469.592 338.734ZM517 429.808C517 386.132 499.361 346.368 470.58 315.826L447.291 337.772C471.018 362.951 485 395.046 485 429.808H517ZM321 585.486C371.604 585.486 420.421 578.452 456.941 554.937C494.839 530.535 517 490.074 517 429.808H485C485 481.108 466.866 510.486 439.617 528.032C410.99 546.464 369.807 553.486 321 553.486V585.486ZM125 429.808C125 486.683 147.398 526.812 184.792 551.961C221.144 576.409 269.841 585.486 321 585.486V553.486C272.748 553.486 231.444 544.773 202.65 525.407C174.896 506.742 157 477.032 157 429.808H125ZM169.78 317.589C141.969 347.892 125 386.972 125 429.808H157C157 395.708 170.453 364.181 193.356 339.227L169.78 317.589ZM169.125 338.994C170.049 339.71 170.873 340.349 171.646 340.96L191.491 315.857C190.577 315.134 189.629 314.4 188.729 313.702L169.125 338.994ZM168.932 338.842L168.932 338.842L188.922 313.854L188.922 313.854L168.932 338.842ZM167.613 337.662L167.613 337.662L190.241 315.034L190.241 315.034L167.613 337.662ZM144.954 296.399C142.374 308.785 148.227 318.652 153.29 324.695C158.328 330.709 164.926 335.739 169.124 338.993L188.729 313.702C183.921 309.975 180.244 307.04 177.819 304.146C175.419 301.281 176.621 301.295 176.282 302.925L144.954 296.399ZM171.348 278.449C163.6 278.595 152.588 281.259 146.659 291.842L174.577 307.482C174.162 308.223 173.627 308.871 173.041 309.388C172.468 309.895 171.946 310.188 171.603 310.345C170.984 310.627 170.969 310.462 171.951 310.443L171.348 278.449ZM147.118 253.326C138.135 275.627 150.295 294.011 159.45 304.799L183.849 284.093C180.135 279.717 177.807 276.04 176.714 272.891C175.778 270.192 175.733 267.933 176.8 265.284L147.118 253.326ZM219.245 246.205C208.209 239.306 195.589 234.883 183.438 234.515C171.243 234.145 157.706 237.988 149.034 249.875L174.885 268.735C175.433 267.984 177.142 266.339 182.467 266.5C187.836 266.663 195.009 268.792 202.284 273.34L219.245 246.205ZM197.336 235.992C192.176 246.106 192.914 256.276 195.491 264.536L226.039 255.008C225.576 253.524 225.479 252.526 225.498 251.91C225.514 251.375 225.615 250.978 225.84 250.536L197.336 235.992ZM274.073 255.423C265.292 243.039 253.314 233.001 241.155 227.584C230.224 222.714 212.389 219.117 199.958 232.276L223.219 254.252C220.972 256.63 220.547 253.435 228.132 256.815C234.49 259.647 242.137 265.707 247.97 273.933L274.073 255.423ZM282.437 269.628C280.115 264.784 277.321 260.003 274.073 255.423L247.97 273.933C250.155 277.014 252.032 280.228 253.583 283.464L282.437 269.628ZM321 253.486C301.126 253.486 281.91 256.148 263.783 261.114L272.238 291.977C287.616 287.764 303.989 285.486 321 285.486V253.486ZM377.939 261.038C359.893 256.121 340.772 253.486 321 253.486V285.486C337.924 285.486 354.217 287.741 369.526 291.912L377.939 261.038ZM369.489 251.266C365.152 257.382 361.619 263.864 358.935 270.39L388.53 282.561C390.302 278.252 392.668 273.9 395.592 269.777L369.489 251.266ZM443.604 228.12C431.172 214.961 413.338 218.558 402.406 223.428C390.248 228.845 378.27 238.883 369.489 251.266L395.592 269.777C401.425 261.551 409.071 255.491 415.429 252.658C423.015 249.279 422.59 252.474 420.343 250.096L443.604 228.12Z" fill="#251605" mask="url(#path-7-inside-3_37_9)"/>
<path d="M304.833 382.737C306.085 404.529 286.834 424.217 260.368 425.473C233.901 426.729 212.498 408.971 211.246 387.178C209.994 365.386 229.246 345.698 255.712 344.442C282.178 343.186 303.581 360.945 304.833 382.737Z" fill="white" stroke="#251605" stroke-width="9.98625"/>
<ellipse cx="34.1918" cy="36.8349" rx="34.1918" ry="36.8349" transform="matrix(0.998876 -0.0474026 0.057364 0.998353 214.428 350.153)" fill="#251605"/>
<ellipse cx="9.55901" cy="18.7296" rx="9.55901" ry="18.7296" transform="matrix(0.998876 -0.0474026 0.057364 0.998353 230.013 365.038)" fill="white"/>
<path d="M431.518 382.737C432.77 404.529 413.519 424.217 387.052 425.473C360.586 426.729 339.183 408.971 337.931 387.178C336.679 365.386 355.93 345.698 382.397 344.442C408.863 343.186 430.266 360.945 431.518 382.737Z" fill="white" stroke="#251605" stroke-width="9.98625"/>
<ellipse cx="34.1918" cy="36.8349" rx="34.1918" ry="36.8349" transform="matrix(0.998876 -0.0474026 0.057364 0.998353 341.113 350.153)" fill="#251605"/>
<ellipse cx="9.55901" cy="18.7296" rx="9.55901" ry="18.7296" transform="matrix(0.998876 -0.0474026 0.057364 0.998353 356.698 365.038)" fill="white"/>
<path d="M283 469C283 518.162 358.361 523.488 358.361 469" stroke="#251605" stroke-width="13.5285"/>
<path d="M307.001 487.64L304.108 476.502L311.38 476.91L307.001 487.64Z" fill="#FDF1E1"/>
<path d="M336.478 488.136L339.346 476.626L332.074 477.034L336.478 488.136Z" fill="#FDF1E1"/>
<path d="M319.358 473.069L320.741 472.677L322.128 473.056C335.439 476.691 344.791 473.736 350.825 468.503C357.052 463.102 360.368 454.736 360.368 446.618C360.368 439.693 356.592 434.548 349.067 429.793C341.738 425.163 331.852 421.551 320.78 417.505C320.697 417.475 320.614 417.445 320.531 417.414C310.427 420.186 300.519 423.843 293.111 428.718C285.334 433.835 281.166 439.678 281.166 446.618C281.166 462.426 296.754 479.48 319.358 473.069Z" fill="#FDF1E1" stroke="#251605" stroke-width="10.3326"/>
<ellipse cx="307.34" cy="448.509" rx="3.62698" ry="11.3013" fill="#251605"/>
<ellipse cx="332.922" cy="448.509" rx="3.62698" ry="11.3013" fill="#251605"/>
</svg>
