<svg width="650" height="650" viewBox="0 0 650 650" fill="none" xmlns="http://www.w3.org/2000/svg">
<path d="M595.955 291.468C556.255 289.897 515.42 316.549 472.182 306.982L465.273 370.358C465.273 370.358 562.363 354.13 599.394 345.344C636.425 336.558 635.655 293.039 595.955 291.468Z" fill="#EC4067"/>
<path d="M472.182 306.982L473.993 299.194L465.182 297.245L464.206 306.194L472.182 306.982ZM595.955 291.468L596.347 283.497L595.955 291.468ZM599.394 345.344L597.6 337.585L599.394 345.344ZM465.273 370.358L457.297 369.57L456.165 379.958L466.532 378.225L465.273 370.358ZM470.371 314.77C494.009 320 516.67 315.24 537.329 309.948C558.602 304.499 577.217 298.714 595.562 299.439L596.347 283.497C574.993 282.652 553.341 289.407 533.461 294.499C512.968 299.749 493.593 303.531 473.993 299.194L470.371 314.77ZM595.562 299.439C612.199 300.098 618.122 308.919 618.434 316.116C618.764 323.756 613.068 333.915 597.6 337.585L601.188 353.103C622.751 347.987 635.186 331.994 634.464 315.285C633.722 298.133 619.411 284.409 596.347 283.497L595.562 299.439ZM597.6 337.585C579.346 341.916 546.045 348.131 517.101 353.294C502.673 355.867 489.399 358.167 479.73 359.824C474.897 360.652 470.965 361.319 468.244 361.779C466.883 362.009 465.824 362.187 465.106 362.308C464.748 362.368 464.474 362.414 464.29 362.445C464.198 362.46 464.129 362.472 464.083 362.48C464.06 362.483 464.042 362.486 464.031 362.488C464.025 362.489 464.021 362.49 464.018 362.49C464.017 362.491 464.016 362.491 464.015 362.491C464.014 362.491 464.014 362.491 465.273 370.358C466.532 378.225 466.533 378.225 466.534 378.225C466.534 378.224 466.535 378.224 466.537 378.224C466.54 378.223 466.545 378.223 466.551 378.222C466.563 378.22 466.581 378.217 466.604 378.213C466.652 378.205 466.722 378.193 466.815 378.177C467.001 378.146 467.277 378.1 467.638 378.039C468.361 377.918 469.425 377.739 470.791 377.508C473.523 377.046 477.467 376.377 482.314 375.546C492.007 373.886 505.319 371.579 519.793 368.998C548.652 363.85 582.411 357.558 601.188 353.103L597.6 337.585ZM473.249 371.146L480.158 307.77L464.206 306.194L457.297 369.57L473.249 371.146Z" fill="#251605"/>
<path d="M573.709 205.186C542.678 209.483 508.269 253.049 464.753 258.004L479.631 310.047C479.631 310.047 584.822 272.521 601.342 250.872C617.863 229.222 604.741 200.89 573.709 205.186Z" fill="#EC4067"/>
<path d="M464.753 258.004L463.825 250.058L454.469 251.123L457.058 260.182L464.753 258.004ZM573.709 205.186L572.59 197.265L573.709 205.186ZM601.342 250.872L594.974 246.011L601.342 250.872ZM479.631 310.047L471.937 312.225L474.289 320.452L482.34 317.58L479.631 310.047ZM465.68 265.95C489.611 263.225 510.577 249.965 528.392 237.988C537.552 231.83 545.769 226.071 553.725 221.486C561.674 216.905 568.586 213.973 574.829 213.108L572.59 197.265C563.317 198.548 554.292 202.673 545.701 207.624C537.118 212.571 528.194 218.819 519.434 224.709C501.408 236.828 483.411 247.828 463.825 250.058L465.68 265.95ZM574.829 213.108C587.641 211.334 595.126 216.287 598.349 222.14C601.711 228.246 601.585 237.347 594.974 246.011L607.711 255.732C617.62 242.747 619.193 226.857 612.367 214.459C605.401 201.807 590.809 194.742 572.59 197.265L574.829 213.108ZM594.974 246.011C593.667 247.724 591.027 250.114 586.788 253.06C582.666 255.925 577.485 259.009 571.544 262.209C559.667 268.606 545.22 275.218 531.135 281.22C517.078 287.211 503.515 292.539 493.456 296.372C488.43 298.287 484.287 299.826 481.404 300.885C479.963 301.414 478.837 301.824 478.075 302.1C477.693 302.238 477.402 302.342 477.208 302.412C477.111 302.447 477.039 302.473 476.991 302.49C476.967 302.499 476.949 302.505 476.937 302.509C476.932 302.511 476.928 302.513 476.925 302.513C476.924 302.514 476.923 302.514 476.922 302.514C476.922 302.514 476.922 302.514 479.631 310.047C482.34 317.58 482.341 317.58 482.342 317.579C482.343 317.579 482.345 317.578 482.346 317.577C482.35 317.576 482.356 317.574 482.363 317.572C482.377 317.567 482.397 317.559 482.424 317.55C482.477 317.531 482.556 317.503 482.658 317.466C482.863 317.392 483.165 317.283 483.558 317.141C484.344 316.857 485.495 316.439 486.962 315.9C489.897 314.822 494.101 313.26 499.194 311.319C509.375 307.439 523.142 302.032 537.448 295.936C551.726 289.85 566.675 283.022 579.167 276.293C585.411 272.931 591.159 269.531 595.951 266.2C600.627 262.95 604.888 259.431 607.711 255.732L594.974 246.011ZM487.325 307.87L472.447 255.827L457.058 260.182L471.937 312.225L487.325 307.87Z" fill="#251605"/>
<path d="M603.131 420.067C574.831 428.443 517.367 405.853 478.096 418.516L470.697 368.168C470.697 368.168 571.3 363.418 598.098 371.56C624.896 379.702 631.431 411.691 603.131 420.067Z" fill="#EC4067"/>
<path d="M478.096 418.516L480.529 426.137L471.558 429.029L470.187 419.7L478.096 418.516ZM598.098 371.56L600.434 363.898L598.098 371.56ZM470.697 368.168L462.788 369.351L461.5 360.587L470.339 360.17L470.697 368.168ZM475.662 410.895C497.281 403.924 523.258 406.766 545.792 409.747C557.4 411.282 568.107 412.873 577.788 413.593C587.544 414.319 595.248 414.057 600.882 412.389L605.38 427.745C596.864 430.266 586.773 430.321 576.568 429.562C566.288 428.798 554.867 427.104 543.663 425.622C520.572 422.567 498.182 420.445 480.529 426.137L475.662 410.895ZM600.882 412.389C606.532 410.717 609.742 408.095 611.464 405.58C613.18 403.075 613.826 400.098 613.364 396.884C612.422 390.326 606.642 382.528 595.762 379.222L600.434 363.898C616.352 368.734 627.238 381.001 629.188 394.567C630.172 401.416 628.821 408.515 624.64 414.619C620.466 420.712 613.88 425.229 605.38 427.745L600.882 412.389ZM595.762 379.222C590.099 377.502 579.683 376.292 566.445 375.591C553.467 374.903 538.553 374.733 524.377 374.817C510.218 374.901 496.878 375.238 487.074 375.555C482.174 375.713 478.162 375.866 475.378 375.979C473.986 376.036 472.901 376.082 472.166 376.115C471.799 376.131 471.519 376.144 471.332 376.152C471.238 376.157 471.168 376.16 471.122 376.162C471.098 376.163 471.081 376.164 471.07 376.164C471.064 376.165 471.06 376.165 471.058 376.165C471.056 376.165 471.056 376.165 471.055 376.165C471.055 376.165 471.055 376.165 470.697 368.168C470.339 360.17 470.339 360.17 470.341 360.17C470.341 360.17 470.343 360.17 470.345 360.17C470.348 360.169 470.353 360.169 470.36 360.169C470.373 360.168 470.392 360.167 470.418 360.166C470.468 360.164 470.542 360.16 470.64 360.156C470.835 360.147 471.124 360.134 471.5 360.117C472.252 360.084 473.355 360.037 474.766 359.979C477.588 359.865 481.645 359.71 486.595 359.55C496.491 359.231 509.978 358.89 524.319 358.804C538.643 358.719 553.905 358.888 567.327 359.6C580.489 360.298 592.698 361.547 600.434 363.898L595.762 379.222ZM478.605 366.984L486.004 417.332L470.187 419.7L462.788 369.351L478.605 366.984Z" fill="#251605"/>
<path d="M40.4279 302.992C75.5111 303.905 126.845 317.384 172.29 303.133L182.235 362.787C182.235 362.787 73.651 363.454 39.0086 354.808C4.36623 346.161 5.34465 302.079 40.4279 302.992Z" fill="#EC4067"/>
<path d="M172.29 303.133L169.816 295.529L178.686 292.747L180.21 301.893L172.29 303.133ZM40.4279 302.992L40.5727 295.023L40.5727 295.023L40.4279 302.992ZM39.0086 354.808L40.9057 347.077L39.0086 354.808ZM182.235 362.787L190.155 361.548L191.681 370.702L182.35 370.759L182.235 362.787ZM174.764 310.736C150.598 318.315 125.2 318.428 101.939 316.698C90.2996 315.833 78.9823 314.485 68.6074 313.325C58.1255 312.153 48.6621 311.179 40.2831 310.961L40.5727 295.023C49.7353 295.261 59.8449 296.315 70.2755 297.481C80.813 298.66 91.7478 299.962 103.008 300.799C125.547 302.475 148.538 302.201 169.816 295.529L174.764 310.736ZM40.2831 310.961C33.2612 310.779 28.7531 312.829 26.0254 315.347C23.2536 317.905 21.6983 321.513 21.5966 325.578C21.3963 333.591 27.0303 343.614 40.9057 347.077L37.1116 362.538C16.3445 357.355 5.14662 341.014 5.54568 325.052C5.74375 317.131 8.84595 309.348 15.0422 303.628C21.2826 297.867 30.053 294.749 40.5727 295.023L40.2831 310.961ZM40.9057 347.077C57.2017 351.145 92.0497 353.15 123.782 354.071C139.443 354.526 154.036 354.712 164.717 354.785C170.055 354.821 174.413 354.829 177.432 354.827C178.942 354.827 180.117 354.824 180.914 354.821C181.312 354.819 181.615 354.818 181.818 354.817C181.919 354.817 181.996 354.816 182.046 354.816C182.071 354.816 182.09 354.816 182.102 354.816C182.109 354.816 182.113 354.816 182.116 354.816C182.117 354.816 182.118 354.816 182.119 354.816C182.12 354.816 182.12 354.816 182.235 362.787C182.35 370.759 182.349 370.759 182.348 370.759C182.347 370.759 182.346 370.759 182.344 370.759C182.34 370.759 182.335 370.759 182.328 370.759C182.314 370.759 182.293 370.76 182.266 370.76C182.212 370.76 182.132 370.76 182.027 370.761C181.817 370.762 181.506 370.763 181.1 370.765C180.289 370.767 179.097 370.77 177.571 370.771C174.517 370.772 170.12 370.765 164.738 370.728C153.977 370.655 139.258 370.468 123.443 370.009C92.223 369.102 55.458 367.118 37.1116 362.538L40.9057 347.077ZM174.315 364.027L164.37 304.372L180.21 301.893L190.155 361.548L174.315 364.027Z" fill="#251605"/>
<path d="M62.9189 218.777C96.1696 218.856 138.227 258.542 184.713 257.562L176.002 312.735C176.002 312.735 60.2175 289.033 39.9276 269.231C19.6377 249.43 29.6681 218.697 62.9189 218.777Z" fill="#EC4067"/>
<path d="M184.713 257.562L184.566 249.564L194.103 249.363L192.615 258.787L184.713 257.562ZM39.9276 269.231L34.3314 274.964L39.9276 269.231ZM176.002 312.735L183.904 313.961L182.595 322.255L174.376 320.573L176.002 312.735ZM184.859 265.56C159.486 266.095 135.765 255.546 115.38 245.783C104.926 240.777 95.4789 236.027 86.4651 232.443C77.4652 228.864 69.7025 226.793 62.8771 226.776L62.9606 210.777C72.7606 210.8 82.7241 213.72 92.4144 217.574C102.091 221.422 112.298 226.548 122.325 231.35C142.903 241.205 163.453 250.009 184.566 249.564L184.859 265.56ZM62.8771 226.776C48.8378 226.743 41.4116 233.013 38.7551 239.544C36.0239 246.26 37.3588 255.53 45.5238 263.499L34.3314 274.964C22.2065 263.131 18.4117 247.135 23.9358 233.553C29.5348 219.787 43.7491 210.731 62.9606 210.777L62.8771 226.776ZM45.5238 263.499C47.1633 265.099 50.304 267.194 55.1821 269.623C59.929 271.986 65.8164 274.422 72.5125 276.868C85.8985 281.757 102.015 286.505 117.657 290.679C133.27 294.846 148.273 298.403 159.383 300.92C164.934 302.178 169.505 303.175 172.685 303.856C174.274 304.196 175.515 304.458 176.356 304.634C176.777 304.722 177.097 304.788 177.311 304.833C177.418 304.855 177.499 304.871 177.552 304.882C177.578 304.888 177.598 304.892 177.611 304.894C177.617 304.896 177.622 304.897 177.625 304.897C177.626 304.898 177.627 304.898 177.628 304.898C177.628 304.898 177.628 304.898 176.002 312.735C174.376 320.573 174.375 320.572 174.374 320.572C174.373 320.572 174.371 320.572 174.369 320.571C174.365 320.57 174.359 320.569 174.351 320.568C174.336 320.564 174.313 320.56 174.284 320.554C174.226 320.542 174.14 320.524 174.027 320.501C173.802 320.454 173.47 320.385 173.037 320.295C172.173 320.114 170.906 319.847 169.29 319.501C166.058 318.808 161.425 317.798 155.805 316.525C144.57 313.979 129.359 310.373 113.49 306.138C97.6501 301.912 81.0157 297.022 66.9855 291.898C59.9736 289.337 53.4865 286.672 48.0178 283.949C42.6804 281.291 37.7644 278.314 34.3314 274.964L45.5238 263.499ZM168.1 311.51L176.81 256.336L192.615 258.787L183.904 313.961L168.1 311.51Z" fill="#251605"/>
<path d="M47.6029 439.852C78.1327 445.34 135.923 414.146 178.399 422.873L180.805 368.135C180.805 368.135 74.9301 375.384 47.7266 387.372C20.5231 399.36 17.073 434.364 47.6029 439.852Z" fill="#EC4067"/>
<path d="M178.399 422.873L176.81 430.715L185.974 432.598L186.385 423.245L178.399 422.873ZM47.6029 439.852L46.2089 447.732L47.6029 439.852ZM47.7266 387.372L50.9613 394.701L47.7266 387.372ZM180.805 368.135L188.791 368.506L189.186 359.535L180.24 360.148L180.805 368.135ZM179.987 415.031C156.662 410.239 129.813 416.442 106.528 422.39C94.5405 425.452 83.4809 428.47 73.405 430.428C63.2497 432.401 55.1159 433.072 48.9968 431.972L46.2089 447.732C55.3548 449.376 65.8934 448.205 76.4876 446.146C87.1612 444.072 98.9281 440.865 110.514 437.906C134.375 431.811 157.659 426.781 176.81 430.715L179.987 415.031ZM48.9968 431.972C42.8735 430.872 39.175 428.445 37.0418 425.893C34.9051 423.336 33.8518 420.081 34.0023 416.396C34.3092 408.884 39.784 399.627 50.9613 394.701L44.4918 380.043C28.4657 387.106 18.6137 401.344 18.0272 415.703C17.731 422.954 19.8392 430.227 24.7921 436.153C29.7484 442.082 37.0673 446.088 46.2089 447.732L48.9968 431.972ZM50.9613 394.701C56.7611 392.145 67.5837 389.57 81.3684 387.199C94.8973 384.872 110.506 382.862 125.365 381.215C140.208 379.57 154.218 378.296 164.522 377.433C169.672 377.001 173.891 376.673 176.82 376.453C178.284 376.343 179.425 376.26 180.199 376.204C180.585 376.177 180.88 376.156 181.077 376.142C181.175 376.135 181.25 376.13 181.298 376.127C181.323 376.125 181.341 376.124 181.353 376.123C181.359 376.123 181.363 376.122 181.366 376.122C181.367 376.122 181.368 376.122 181.369 376.122C181.369 376.122 181.369 376.122 180.805 368.135C180.24 360.148 180.24 360.148 180.238 360.148C180.237 360.148 180.236 360.148 180.234 360.148C180.23 360.148 180.225 360.149 180.218 360.149C180.204 360.15 180.184 360.151 180.157 360.153C180.104 360.157 180.026 360.162 179.924 360.17C179.718 360.184 179.415 360.205 179.02 360.234C178.229 360.29 177.069 360.375 175.585 360.486C172.617 360.709 168.352 361.041 163.151 361.477C152.754 362.348 138.595 363.635 123.569 365.301C108.559 366.964 92.5983 369.015 78.6247 371.418C64.9069 373.778 52.2938 376.605 44.4918 380.043L50.9613 394.701ZM172.818 367.763L170.412 422.502L186.385 423.245L188.791 368.506L172.818 367.763Z" fill="#251605"/>
<mask id="path-13-inside-1_37_3" fill="white">
<path fill-rule="evenodd" clip-rule="evenodd" d="M524.851 395.248C528.127 376.162 527.842 352.769 523.203 324.078C515.687 180.131 420.279 160.656 304.194 166.718C188.11 172.78 95.1786 200.171 102.071 332.162C102.404 338.536 103.15 344.833 104.293 351.027C91.8764 364.462 85.3149 379.061 86.0977 394.052C91.6756 500.872 205.914 492.368 313.779 482.337C324.32 481.954 334.957 481.736 345.556 481.518C420.494 479.983 493.6 478.485 518.271 418.651C521.635 411.31 523.731 403.471 524.851 395.248Z"/>
</mask>
<path fill-rule="evenodd" clip-rule="evenodd" d="M524.851 395.248C528.127 376.162 527.842 352.769 523.203 324.078C515.687 180.131 420.279 160.656 304.194 166.718C188.11 172.78 95.1786 200.171 102.071 332.162C102.404 338.536 103.15 344.833 104.293 351.027C91.8764 364.462 85.3149 379.061 86.0977 394.052C91.6756 500.872 205.914 492.368 313.779 482.337C324.32 481.954 334.957 481.736 345.556 481.518C420.494 479.983 493.6 478.485 518.271 418.651C521.635 411.31 523.731 403.471 524.851 395.248Z" fill="#FDF1E1"/>
<path d="M523.203 324.078L507.225 324.912L507.27 325.777L507.408 326.631L523.203 324.078ZM524.851 395.248L509.082 392.541L509.035 392.814L508.997 393.089L524.851 395.248ZM104.293 351.027L116.044 361.886L121.482 356.001L120.027 348.121L104.293 351.027ZM313.779 482.337L313.196 466.348L312.746 466.364L312.297 466.406L313.779 482.337ZM345.556 481.518L345.229 465.522L345.229 465.522L345.556 481.518ZM518.271 418.651L503.725 411.985L503.596 412.266L503.479 412.552L518.271 418.651ZM507.408 326.631C511.859 354.161 511.974 375.693 509.082 392.541L540.621 397.954C544.281 376.63 543.825 351.377 538.998 321.524L507.408 326.631ZM305.029 182.696C362.755 179.682 411.555 183.398 446.568 203.09C479.851 221.809 503.67 256.824 507.225 324.912L539.182 323.244C535.22 247.385 507.577 200.689 462.255 175.199C418.664 150.683 361.718 147.693 303.36 150.74L305.029 182.696ZM118.049 331.328C116.423 300.192 120.747 276.4 129.01 258.049C137.204 239.852 149.654 226.142 165.77 215.61C198.794 194.027 247.225 185.715 305.029 182.696L303.36 150.74C245.079 153.783 189.003 162.198 148.263 188.823C127.497 202.395 110.751 220.66 99.8315 244.911C88.9807 269.008 84.2725 298.137 86.0928 332.997L118.049 331.328ZM120.027 348.121C119.01 342.612 118.346 337.006 118.049 331.328L86.0928 332.997C86.4619 340.066 87.2894 347.055 88.5592 353.932L120.027 348.121ZM102.076 393.217C101.584 383.801 105.566 373.224 116.044 361.886L92.5427 340.167C78.1869 355.701 69.0456 374.321 70.1194 394.886L102.076 393.217ZM312.297 466.406C257.641 471.489 204.923 475.697 165.216 466.432C145.75 461.89 130.851 454.395 120.534 443.382C110.416 432.584 103.314 416.92 102.076 393.217L70.1194 394.886C71.6707 424.594 80.9393 447.925 97.1813 465.261C113.223 482.383 134.671 492.164 157.945 497.595C203.718 508.276 262.051 503.217 315.26 498.269L312.297 466.406ZM345.229 465.522C334.651 465.738 323.886 465.959 313.196 466.348L314.361 498.327C324.754 497.948 335.262 497.733 345.884 497.515L345.229 465.522ZM503.479 412.552C493.698 436.274 474.49 449.195 446.711 456.469C418.187 463.937 383.244 464.743 345.229 465.522L345.884 497.515C382.807 496.759 421.886 496.048 454.817 487.425C488.493 478.607 518.173 460.862 533.063 424.749L503.479 412.552ZM508.997 393.089C508.055 400.012 506.334 406.292 503.725 411.985L532.816 425.316C536.936 416.327 539.408 406.931 540.705 397.407L508.997 393.089Z" fill="#251605" mask="url(#path-13-inside-1_37_3)"/>
<path d="M258.748 325.304C260.607 360.902 232.213 391.778 194.729 393.735C157.245 395.693 125.79 367.942 123.931 332.344C122.072 296.746 150.466 265.87 187.95 263.912C225.434 261.955 256.889 289.706 258.748 325.304Z" fill="white" stroke="#251605" stroke-width="16"/>
<ellipse cx="180.645" cy="329.382" rx="49.7979" ry="59" transform="rotate(-2.98917 180.645 329.382)" fill="#251605"/>
<ellipse cx="165.998" cy="326.142" rx="13.922" ry="30" transform="rotate(-2.98917 165.998 326.142)" fill="white"/>
<path d="M459.474 314.822C461.333 350.421 432.94 381.297 395.456 383.254C357.971 385.211 326.517 357.461 324.658 321.862C322.799 286.264 351.192 255.388 388.677 253.431C426.161 251.473 457.615 279.224 459.474 314.822Z" fill="white" stroke="#251605" stroke-width="16"/>
<ellipse cx="381.371" cy="318.901" rx="49.7979" ry="59" transform="rotate(-2.98917 381.371 318.901)" fill="#251605"/>
<ellipse cx="366.725" cy="315.66" rx="13.922" ry="30" transform="rotate(-2.98917 366.725 315.66)" fill="white"/>
<path d="M263.79 401.879C277.227 444.134 326.222 444.332 332.867 397.502" stroke="#251605" stroke-width="20.4404" stroke-linecap="round"/>
</svg>
