<svg width="1773" height="386" viewBox="0 0 1773 386" fill="none" xmlns="http://www.w3.org/2000/svg">
<path d="M64.7227 266V120.545H104.211V179.352H106.2L149.95 120.545H195.973L146.825 185.318L197.109 266H149.95L117.279 211.455L104.211 228.5V266H64.7227ZM333.544 120.545V266H300.589L248.032 189.58H247.18V266H207.691V120.545H241.214L292.919 196.682H294.055V120.545H333.544ZM438.302 120.545H477.791V213.727C477.791 224.807 475.139 234.395 469.836 242.491C464.581 250.541 457.242 256.767 447.819 261.17C438.397 265.527 427.459 267.705 415.007 267.705C402.459 267.705 391.475 265.527 382.052 261.17C372.63 256.767 365.291 250.541 360.035 242.491C354.827 234.395 352.223 224.807 352.223 213.727V120.545H391.711V210.318C391.711 214.816 392.706 218.841 394.694 222.392C396.683 225.896 399.429 228.642 402.933 230.631C406.484 232.619 410.509 233.614 415.007 233.614C419.552 233.614 423.577 232.619 427.081 230.631C430.584 228.642 433.331 225.896 435.319 222.392C437.308 218.841 438.302 214.816 438.302 210.318V120.545ZM632.354 175.091H592.297C592.013 171.777 591.256 168.77 590.025 166.071C588.841 163.372 587.184 161.052 585.053 159.111C582.97 157.122 580.436 155.607 577.453 154.565C574.471 153.476 571.085 152.932 567.297 152.932C560.668 152.932 555.058 154.542 550.465 157.761C545.919 160.981 542.463 165.598 540.096 171.611C537.775 177.624 536.615 184.845 536.615 193.273C536.615 202.174 537.799 209.632 540.167 215.645C542.581 221.611 546.061 226.109 550.607 229.139C555.152 232.122 560.621 233.614 567.013 233.614C570.659 233.614 573.926 233.164 576.814 232.264C579.703 231.317 582.212 229.968 584.343 228.216C586.473 226.464 588.202 224.357 589.527 221.895C590.9 219.385 591.824 216.568 592.297 213.443L632.354 213.727C631.881 219.883 630.152 226.156 627.169 232.548C624.186 238.893 619.949 244.764 614.456 250.162C609.011 255.512 602.264 259.821 594.215 263.088C586.166 266.355 576.814 267.989 566.161 267.989C552.809 267.989 540.829 265.124 530.223 259.395C519.665 253.666 511.308 245.238 505.152 234.111C499.044 222.984 495.99 209.371 495.99 193.273C495.99 177.08 499.115 163.443 505.365 152.364C511.615 141.237 520.043 132.832 530.65 127.151C541.256 121.421 553.093 118.557 566.161 118.557C575.346 118.557 583.798 119.812 591.516 122.321C599.234 124.83 606.005 128.5 611.828 133.33C617.652 138.112 622.34 144.007 625.891 151.014C629.442 158.022 631.596 166.047 632.354 175.091ZM650.27 266V120.545H689.758V179.352H691.747L735.497 120.545H781.52L732.372 185.318L782.656 266H735.497L702.826 211.455L689.758 228.5V266H650.27ZM793.238 266V120.545H832.727V234.182H891.534V266H793.238ZM907.496 266V120.545H1012.33V152.364H946.985V177.364H1006.93V209.182H946.985V234.182H1012.04V266H907.496ZM1031.91 266V120.545H1094.98C1106.06 120.545 1115.36 122.037 1122.89 125.02C1130.47 128.003 1136.17 132.217 1140.01 137.662C1143.89 143.107 1145.83 149.523 1145.83 156.909C1145.83 162.259 1144.65 167.136 1142.28 171.54C1139.96 175.943 1136.69 179.636 1132.48 182.619C1128.26 185.555 1123.34 187.591 1117.71 188.727V190.148C1123.96 190.384 1129.64 191.971 1134.75 194.906C1139.86 197.795 1143.94 201.795 1146.97 206.909C1150 211.975 1151.51 217.941 1151.51 224.807C1151.51 232.761 1149.43 239.84 1145.26 246.043C1141.14 252.245 1135.27 257.122 1127.65 260.673C1120.03 264.224 1110.93 266 1100.38 266H1031.91ZM1071.4 234.466H1089.86C1096.49 234.466 1101.47 233.235 1104.78 230.773C1108.09 228.263 1109.75 224.57 1109.75 219.693C1109.75 216.284 1108.97 213.396 1107.41 211.028C1105.84 208.661 1103.62 206.862 1100.73 205.631C1097.89 204.4 1094.46 203.784 1090.43 203.784H1071.4V234.466ZM1071.4 179.352H1087.59C1091.05 179.352 1094.1 178.808 1096.75 177.719C1099.41 176.63 1101.47 175.067 1102.93 173.031C1104.45 170.948 1105.21 168.415 1105.21 165.432C1105.21 160.934 1103.6 157.501 1100.38 155.134C1097.16 152.719 1093.08 151.511 1088.16 151.511H1071.4V179.352ZM1450.73 120.545V266H1417.78L1365.22 189.58H1364.37V266H1324.88V120.545H1358.4L1410.11 196.682H1411.24V120.545H1450.73ZM1469.41 266V120.545H1574.24V152.364H1508.9V177.364H1568.84V209.182H1508.9V234.182H1573.96V266H1469.41ZM1672.23 166C1671.85 161.265 1670.08 157.572 1666.91 154.92C1663.78 152.269 1659.02 150.943 1652.63 150.943C1648.56 150.943 1645.22 151.44 1642.62 152.435C1640.06 153.382 1638.17 154.684 1636.94 156.341C1635.7 157.998 1635.06 159.892 1635.02 162.023C1634.92 163.775 1635.23 165.361 1635.94 166.781C1636.7 168.154 1637.88 169.409 1639.49 170.545C1641.1 171.634 1643.16 172.629 1645.67 173.528C1648.18 174.428 1651.16 175.233 1654.62 175.943L1666.55 178.5C1674.6 180.205 1681.49 182.454 1687.22 185.247C1692.95 188.041 1697.64 191.331 1701.28 195.119C1704.93 198.86 1707.6 203.074 1709.31 207.761C1711.06 212.449 1711.96 217.562 1712.01 223.102C1711.96 232.667 1709.57 240.763 1704.83 247.392C1700.1 254.021 1693.33 259.063 1684.52 262.52C1675.76 265.976 1665.23 267.705 1652.92 267.705C1640.27 267.705 1629.24 265.834 1619.82 262.094C1610.44 258.353 1603.15 252.6 1597.94 244.835C1592.78 237.023 1590.18 227.032 1590.13 214.864H1627.63C1627.87 219.314 1628.98 223.055 1630.97 226.085C1632.96 229.116 1635.75 231.412 1639.35 232.974C1643 234.537 1647.33 235.318 1652.35 235.318C1656.56 235.318 1660.09 234.797 1662.93 233.756C1665.77 232.714 1667.92 231.27 1669.39 229.423C1670.86 227.577 1671.62 225.47 1671.67 223.102C1671.62 220.877 1670.88 218.936 1669.46 217.278C1668.09 215.574 1665.82 214.059 1662.65 212.733C1659.47 211.36 1655.19 210.081 1649.79 208.898L1635.3 205.773C1622.42 202.979 1612.27 198.315 1604.83 191.781C1597.45 185.2 1593.78 176.227 1593.82 164.864C1593.78 155.631 1596.24 147.558 1601.21 140.645C1606.23 133.685 1613.17 128.263 1622.02 124.381C1630.92 120.498 1641.13 118.557 1652.63 118.557C1664.37 118.557 1674.53 120.522 1683.1 124.452C1691.67 128.382 1698.27 133.921 1702.92 141.071C1707.6 148.173 1709.97 156.483 1710.02 166H1672.23Z" fill="#251605"/>
<rect x="1176.61" y="133.607" width="119.786" height="119.786" rx="4.60714" fill="#EC4067" stroke="black" stroke-width="9.21429"/>
<circle cx="1236.5" cy="193.5" r="17.9167" fill="white"/>
</svg>
