<svg width="641" height="350" viewBox="0 0 641 350" fill="none" xmlns="http://www.w3.org/2000/svg">
<path d="M595.955 141.468C556.255 139.897 515.42 166.549 472.182 156.982L465.273 220.358C465.273 220.358 562.363 204.13 599.394 195.344C636.425 186.558 635.655 143.039 595.955 141.468Z" fill="#0A8754"/>
<path d="M472.182 156.982L473.993 149.194L465.182 147.245L464.206 156.194L472.182 156.982ZM595.955 141.468L596.347 133.497L595.955 141.468ZM599.394 195.344L597.6 187.585L599.394 195.344ZM465.273 220.358L457.297 219.57L456.165 229.958L466.532 228.225L465.273 220.358ZM470.371 164.77C494.009 170 516.67 165.24 537.329 159.948C558.602 154.499 577.217 148.714 595.562 149.439L596.347 133.497C574.993 132.652 553.341 139.407 533.461 144.499C512.968 149.749 493.593 153.531 473.993 149.194L470.371 164.77ZM595.562 149.439C612.199 150.098 618.122 158.919 618.434 166.116C618.764 173.756 613.068 183.915 597.6 187.585L601.188 203.103C622.751 197.987 635.186 181.994 634.464 165.285C633.722 148.133 619.411 134.409 596.347 133.497L595.562 149.439ZM597.6 187.585C579.346 191.916 546.045 198.131 517.101 203.294C502.673 205.867 489.399 208.167 479.73 209.824C474.897 210.652 470.965 211.319 468.244 211.779C466.883 212.009 465.824 212.187 465.106 212.308C464.748 212.368 464.474 212.414 464.29 212.445C464.198 212.46 464.129 212.472 464.083 212.48C464.06 212.483 464.042 212.486 464.031 212.488C464.025 212.489 464.021 212.49 464.018 212.49C464.017 212.491 464.016 212.491 464.015 212.491C464.014 212.491 464.014 212.491 465.273 220.358C466.532 228.225 466.533 228.225 466.534 228.225C466.534 228.224 466.535 228.224 466.537 228.224C466.54 228.223 466.545 228.223 466.551 228.222C466.563 228.22 466.581 228.217 466.604 228.213C466.652 228.205 466.722 228.193 466.815 228.177C467.001 228.146 467.277 228.1 467.638 228.039C468.361 227.918 469.425 227.739 470.791 227.508C473.523 227.046 477.467 226.377 482.314 225.546C492.007 223.886 505.319 221.579 519.793 218.998C548.652 213.85 582.411 207.558 601.188 203.103L597.6 187.585ZM473.249 221.146L480.158 157.77L464.206 156.194L457.297 219.57L473.249 221.146Z" fill="#251605"/>
<path d="M573.709 55.1864C542.678 59.4829 508.269 103.049 464.753 108.004L479.631 160.047C479.631 160.047 584.822 122.521 601.342 100.872C617.863 79.2223 604.741 50.8899 573.709 55.1864Z" fill="#0A8754"/>
<path d="M464.753 108.004L463.825 100.058L454.469 101.123L457.058 110.182L464.753 108.004ZM573.709 55.1864L572.59 47.2646L573.709 55.1864ZM601.342 100.872L594.974 96.0111L601.342 100.872ZM479.631 160.047L471.937 162.225L474.289 170.452L482.34 167.58L479.631 160.047ZM465.68 115.95C489.611 113.225 510.577 99.9652 528.392 87.9878C537.552 81.8295 545.769 76.0711 553.725 71.4856C561.674 66.9046 568.586 63.9725 574.829 63.1081L572.59 47.2646C563.317 48.5484 554.292 52.6733 545.701 57.6244C537.118 62.5707 528.194 68.8192 519.434 74.709C501.408 86.8276 483.411 97.828 463.825 100.058L465.68 115.95ZM574.829 63.1081C587.641 61.3342 595.126 66.2868 598.349 72.14C601.711 78.2463 601.585 87.3473 594.974 96.0111L607.711 105.732C617.62 92.7465 619.193 76.8567 612.367 64.4586C605.401 51.8074 590.809 44.742 572.59 47.2646L574.829 63.1081ZM594.974 96.0111C593.667 97.7243 591.027 100.114 586.788 103.06C582.666 105.925 577.485 109.009 571.544 112.209C559.667 118.606 545.22 125.218 531.135 131.22C517.078 137.211 503.515 142.539 493.456 146.372C488.43 148.287 484.287 149.826 481.404 150.885C479.963 151.414 478.837 151.824 478.075 152.1C477.693 152.238 477.402 152.342 477.208 152.412C477.111 152.447 477.039 152.473 476.991 152.49C476.967 152.499 476.949 152.505 476.937 152.509C476.932 152.511 476.928 152.512 476.925 152.513C476.924 152.514 476.923 152.514 476.922 152.514C476.922 152.514 476.922 152.514 479.631 160.047C482.34 167.58 482.341 167.579 482.342 167.579C482.343 167.579 482.345 167.578 482.346 167.577C482.35 167.576 482.356 167.574 482.363 167.572C482.377 167.567 482.397 167.559 482.424 167.55C482.477 167.531 482.556 167.503 482.658 167.466C482.863 167.392 483.165 167.283 483.558 167.141C484.344 166.857 485.495 166.439 486.962 165.9C489.897 164.822 494.101 163.26 499.194 161.319C509.375 157.439 523.142 152.032 537.448 145.936C551.726 139.85 566.675 133.022 579.167 126.293C585.411 122.931 591.159 119.531 595.951 116.2C600.627 112.95 604.888 109.431 607.711 105.732L594.974 96.0111ZM487.325 157.87L472.447 105.827L457.058 110.182L471.937 162.225L487.325 157.87Z" fill="#251605"/>
<path d="M603.131 270.067C574.831 278.443 517.367 255.853 478.096 268.516L470.697 218.168C470.697 218.168 571.3 213.418 598.098 221.56C624.896 229.702 631.431 261.691 603.131 270.067Z" fill="#0A8754"/>
<path d="M478.096 268.516L480.529 276.137L471.558 279.029L470.187 269.7L478.096 268.516ZM598.098 221.56L600.434 213.898L598.098 221.56ZM470.697 218.168L462.788 219.351L461.5 210.587L470.339 210.17L470.697 218.168ZM475.662 260.895C497.281 253.924 523.258 256.766 545.792 259.747C557.4 261.282 568.107 262.873 577.788 263.593C587.544 264.319 595.248 264.057 600.882 262.389L605.38 277.745C596.864 280.266 586.773 280.321 576.568 279.562C566.288 278.798 554.867 277.104 543.663 275.622C520.572 272.567 498.182 270.445 480.529 276.137L475.662 260.895ZM600.882 262.389C606.532 260.717 609.742 258.095 611.464 255.58C613.18 253.075 613.826 250.098 613.364 246.884C612.422 240.326 606.642 232.528 595.762 229.222L600.434 213.898C616.352 218.734 627.238 231.001 629.188 244.567C630.172 251.416 628.821 258.515 624.64 264.619C620.466 270.712 613.88 275.229 605.38 277.745L600.882 262.389ZM595.762 229.222C590.099 227.502 579.683 226.292 566.445 225.591C553.467 224.903 538.553 224.733 524.377 224.817C510.218 224.901 496.878 225.238 487.074 225.555C482.174 225.713 478.162 225.866 475.378 225.979C473.986 226.036 472.901 226.082 472.166 226.115C471.799 226.131 471.519 226.144 471.332 226.152C471.238 226.157 471.168 226.16 471.122 226.162C471.098 226.163 471.081 226.164 471.07 226.164C471.064 226.165 471.06 226.165 471.058 226.165C471.056 226.165 471.056 226.165 471.055 226.165C471.055 226.165 471.055 226.165 470.697 218.168C470.339 210.17 470.339 210.17 470.341 210.17C470.341 210.17 470.343 210.17 470.345 210.17C470.348 210.169 470.353 210.169 470.36 210.169C470.373 210.168 470.392 210.167 470.418 210.166C470.468 210.164 470.542 210.16 470.64 210.156C470.835 210.147 471.124 210.134 471.5 210.117C472.252 210.084 473.355 210.037 474.766 209.979C477.588 209.865 481.645 209.71 486.595 209.55C496.491 209.231 509.978 208.89 524.319 208.804C538.643 208.719 553.905 208.888 567.327 209.6C580.489 210.298 592.698 211.547 600.434 213.898L595.762 229.222ZM478.605 216.984L486.004 267.332L470.187 269.7L462.788 219.351L478.605 216.984Z" fill="#251605"/>
<path d="M40.4276 152.992C75.5109 153.905 126.845 167.384 172.29 153.133L182.235 212.787C182.235 212.787 73.6508 213.454 39.0084 204.808C4.36599 196.161 5.34441 152.079 40.4276 152.992Z" fill="#0A8754"/>
<path d="M172.29 153.133L169.816 145.529L178.685 142.748L180.21 151.893L172.29 153.133ZM40.4276 152.992L40.5725 145.023L40.5725 145.023L40.4276 152.992ZM39.0084 204.808L40.9055 197.077L39.0084 204.808ZM182.235 212.787L190.154 211.548L191.68 220.702L182.35 220.759L182.235 212.787ZM174.764 160.736C150.598 168.315 125.199 168.428 101.939 166.698C90.2993 165.833 78.9821 164.485 68.6071 163.325C58.1252 162.153 48.6619 161.179 40.2828 160.961L40.5725 145.023C49.735 145.261 59.8447 146.315 70.2753 147.481C80.8128 148.66 91.7475 149.962 103.008 150.799C125.546 152.475 148.538 152.202 169.816 145.529L174.764 160.736ZM40.2828 160.961C33.2609 160.779 28.7528 162.829 26.0252 165.347C23.2534 167.905 21.698 171.513 21.5964 175.578C21.396 183.591 27.0301 193.614 40.9055 197.077L37.1113 212.538C16.3443 207.355 5.14638 191.014 5.54544 175.053C5.74351 167.131 8.84571 159.348 15.0419 153.628C21.2823 147.867 30.0528 144.749 40.5725 145.023L40.2828 160.961ZM40.9055 197.077C57.2014 201.145 92.0495 203.15 123.782 204.072C139.443 204.526 154.036 204.712 164.716 204.785C170.055 204.821 174.412 204.829 177.432 204.827C178.942 204.827 180.117 204.824 180.913 204.821C181.311 204.82 181.615 204.818 181.817 204.817C181.919 204.817 181.995 204.816 182.046 204.816C182.071 204.816 182.09 204.816 182.102 204.816C182.108 204.816 182.113 204.816 182.116 204.816C182.117 204.816 182.118 204.816 182.119 204.816C182.119 204.816 182.119 204.816 182.235 212.787C182.35 220.759 182.349 220.759 182.348 220.759C182.347 220.759 182.345 220.759 182.343 220.759C182.34 220.759 182.334 220.759 182.327 220.759C182.313 220.759 182.293 220.76 182.266 220.76C182.212 220.76 182.132 220.76 182.027 220.761C181.816 220.762 181.506 220.763 181.1 220.765C180.289 220.768 179.097 220.771 177.57 220.771C174.517 220.773 170.12 220.765 164.738 220.728C153.977 220.655 139.258 220.468 123.443 220.009C92.2228 219.102 55.4578 217.118 37.1113 212.538L40.9055 197.077ZM174.315 214.027L164.37 154.372L180.21 151.893L190.154 211.548L174.315 214.027Z" fill="#251605"/>
<path d="M62.9189 68.7765C96.1696 68.8563 138.227 108.542 184.713 107.562L176.002 162.735C176.002 162.735 60.2175 139.033 39.9276 119.231C19.6377 99.4302 29.6681 68.6968 62.9189 68.7765Z" fill="#0A8754"/>
<path d="M184.713 107.562L184.566 99.5638L194.103 99.3626L192.615 108.787L184.713 107.562ZM39.9276 119.231L34.3314 124.964L39.9276 119.231ZM176.002 162.735L183.904 163.961L182.595 172.255L174.376 170.573L176.002 162.735ZM184.859 115.56C159.486 116.095 135.765 105.546 115.38 95.7834C104.926 90.7765 95.4789 86.0275 86.4651 82.4428C77.4652 78.8636 69.7025 76.7926 62.8771 76.7762L62.9606 60.7769C72.7606 60.8004 82.7241 63.72 92.4144 67.5737C102.091 71.4219 112.298 76.548 122.325 81.35C142.903 91.2053 163.453 100.009 184.566 99.5638L184.859 115.56ZM62.8771 76.7762C48.8378 76.7425 41.4116 83.0131 38.7551 89.5444C36.0239 96.2596 37.3588 105.53 45.5238 113.499L34.3314 124.964C22.2065 113.131 18.4117 97.1347 23.9358 83.5528C29.5348 69.787 43.7491 60.7308 62.9606 60.7769L62.8771 76.7762ZM45.5238 113.499C47.1633 115.099 50.304 117.194 55.1821 119.623C59.929 121.986 65.8164 124.422 72.5125 126.868C85.8985 131.757 102.015 136.505 117.657 140.679C133.27 144.846 148.273 148.403 159.383 150.92C164.934 152.178 169.505 153.175 172.685 153.856C174.274 154.196 175.515 154.458 176.356 154.634C176.777 154.722 177.097 154.788 177.311 154.833C177.418 154.855 177.499 154.871 177.552 154.882C177.578 154.888 177.598 154.892 177.611 154.894C177.617 154.896 177.622 154.897 177.625 154.897C177.626 154.898 177.627 154.898 177.628 154.898C177.628 154.898 177.628 154.898 176.002 162.735C174.376 170.573 174.375 170.572 174.374 170.572C174.373 170.572 174.371 170.572 174.369 170.571C174.365 170.57 174.359 170.569 174.351 170.568C174.336 170.564 174.313 170.56 174.284 170.554C174.226 170.542 174.14 170.524 174.027 170.501C173.802 170.454 173.47 170.385 173.037 170.295C172.173 170.114 170.906 169.847 169.29 169.501C166.058 168.808 161.425 167.798 155.805 166.525C144.57 163.979 129.359 160.373 113.49 156.138C97.6501 151.912 81.0157 147.022 66.9855 141.898C59.9736 139.337 53.4865 136.672 48.0178 133.949C42.6804 131.291 37.7644 128.314 34.3314 124.964L45.5238 113.499ZM168.1 161.51L176.81 106.336L192.615 108.787L183.904 163.961L168.1 161.51Z" fill="#251605"/>
<path d="M47.6026 289.852C78.1325 295.34 135.922 264.146 178.398 272.873L180.805 218.135C180.805 218.135 74.9298 225.384 47.7263 237.372C20.5229 249.36 17.0728 284.364 47.6026 289.852Z" fill="#0A8754"/>
<path d="M178.398 272.873L176.81 280.715L185.974 282.598L186.385 273.245L178.398 272.873ZM47.6026 289.852L46.2087 297.732L47.6026 289.852ZM47.7263 237.372L50.9611 244.701L47.7263 237.372ZM180.805 218.135L188.791 218.506L189.185 209.535L180.24 210.148L180.805 218.135ZM179.987 265.031C156.662 260.239 129.813 266.442 106.527 272.39C94.5403 275.452 83.4806 278.47 73.4048 280.428C63.2495 282.401 55.1156 283.072 48.9966 281.972L46.2087 297.732C55.3546 299.376 65.8932 298.205 76.4874 296.146C87.161 294.072 98.9279 290.865 110.514 287.906C134.375 281.811 157.659 276.781 176.81 280.715L179.987 265.031ZM48.9966 281.972C42.8733 280.872 39.1747 278.445 37.0415 275.893C34.9049 273.336 33.8515 270.081 34.002 266.396C34.3089 258.884 39.7837 249.627 50.9611 244.701L44.4916 230.043C28.4655 237.106 18.6135 251.344 18.0269 265.703C17.7307 272.954 19.839 280.227 24.7918 286.153C29.7482 292.082 37.067 296.088 46.2087 297.732L48.9966 281.972ZM50.9611 244.701C56.7609 242.145 67.5834 239.57 81.3681 237.199C94.897 234.872 110.506 232.862 125.365 231.215C140.208 229.57 154.218 228.296 164.522 227.433C169.672 227.001 173.891 226.673 176.82 226.453C178.284 226.343 179.425 226.26 180.198 226.204C180.585 226.177 180.88 226.156 181.077 226.142C181.175 226.135 181.249 226.13 181.298 226.127C181.323 226.125 181.341 226.124 181.353 226.123C181.359 226.123 181.363 226.122 181.366 226.122C181.367 226.122 181.368 226.122 181.369 226.122C181.369 226.122 181.369 226.122 180.805 218.135C180.24 210.148 180.239 210.148 180.238 210.148C180.237 210.148 180.236 210.148 180.234 210.148C180.23 210.148 180.225 210.149 180.218 210.149C180.204 210.15 180.184 210.151 180.157 210.153C180.104 210.157 180.026 210.162 179.923 210.17C179.718 210.184 179.415 210.205 179.019 210.234C178.228 210.29 177.069 210.375 175.585 210.486C172.617 210.709 168.352 211.041 163.151 211.477C152.754 212.348 138.595 213.635 123.568 215.301C108.559 216.964 92.598 219.015 78.6244 221.418C64.9066 223.778 52.2935 226.605 44.4916 230.043L50.9611 244.701ZM172.818 217.763L170.412 272.502L186.385 273.245L188.791 218.506L172.818 217.763Z" fill="#251605"/>
<mask id="path-13-inside-1_29_28" fill="white">
<path fill-rule="evenodd" clip-rule="evenodd" d="M524.851 245.248C528.127 226.162 527.842 202.769 523.203 174.078C515.687 30.1307 420.279 10.6565 304.194 16.7183C188.11 22.78 95.1786 50.1708 102.071 182.162C102.404 188.536 103.15 194.833 104.293 201.027C91.8764 214.462 85.3149 229.061 86.0977 244.052C91.6756 350.872 205.914 342.368 313.779 332.337C324.32 331.954 334.957 331.736 345.556 331.518C420.494 329.983 493.6 328.485 518.271 268.651C521.635 261.31 523.731 253.471 524.851 245.248Z"/>
</mask>
<path fill-rule="evenodd" clip-rule="evenodd" d="M524.851 245.248C528.127 226.162 527.842 202.769 523.203 174.078C515.687 30.1307 420.279 10.6565 304.194 16.7183C188.11 22.78 95.1786 50.1708 102.071 182.162C102.404 188.536 103.15 194.833 104.293 201.027C91.8764 214.462 85.3149 229.061 86.0977 244.052C91.6756 350.872 205.914 342.368 313.779 332.337C324.32 331.954 334.957 331.736 345.556 331.518C420.494 329.983 493.6 328.485 518.271 268.651C521.635 261.31 523.731 253.471 524.851 245.248Z" fill="#FDF1E1"/>
<path d="M523.203 174.078L507.225 174.912L507.27 175.777L507.408 176.631L523.203 174.078ZM524.851 245.248L509.082 242.541L509.035 242.814L508.997 243.089L524.851 245.248ZM104.293 201.027L116.044 211.886L121.482 206.001L120.027 198.121L104.293 201.027ZM313.779 332.337L313.196 316.348L312.746 316.364L312.297 316.406L313.779 332.337ZM345.556 331.518L345.229 315.522L345.229 315.522L345.556 331.518ZM518.271 268.651L503.725 261.985L503.596 262.266L503.479 262.552L518.271 268.651ZM507.408 176.631C511.859 204.161 511.974 225.693 509.082 242.541L540.621 247.954C544.281 226.63 543.825 201.377 538.998 171.524L507.408 176.631ZM305.029 32.6965C362.755 29.6822 411.555 33.3982 446.568 53.0905C479.851 71.8093 503.67 106.824 507.225 174.912L539.182 173.244C535.22 97.385 507.577 50.6887 462.255 25.1991C418.664 0.682883 361.718 -2.30732 303.36 0.740052L305.029 32.6965ZM118.049 181.328C116.423 150.192 120.747 126.4 129.01 108.05C137.204 89.8524 149.654 76.1423 165.77 65.6099C198.794 44.0268 247.225 35.7149 305.029 32.6965L303.36 0.740052C245.079 3.78339 189.003 12.1978 148.263 38.8233C127.497 52.3953 110.751 70.6602 99.8315 94.9108C88.9807 119.008 84.2725 148.137 86.0928 182.997L118.049 181.328ZM120.027 198.121C119.01 192.612 118.346 187.006 118.049 181.328L86.0928 182.997C86.4619 190.066 87.2894 197.055 88.5592 203.932L120.027 198.121ZM102.076 243.217C101.584 233.801 105.566 223.224 116.044 211.886L92.5427 190.167C78.1869 205.701 69.0456 224.322 70.1194 244.886L102.076 243.217ZM312.297 316.406C257.641 321.489 204.923 325.697 165.216 316.432C145.75 311.89 130.851 304.395 120.534 293.383C110.416 282.584 103.314 266.92 102.076 243.217L70.1194 244.886C71.6707 274.594 80.9393 297.925 97.1813 315.261C113.223 332.383 134.671 342.164 157.945 347.595C203.718 358.276 262.051 353.217 315.26 348.269L312.297 316.406ZM345.229 315.522C334.651 315.739 323.886 315.959 313.196 316.348L314.361 348.327C324.754 347.948 335.262 347.733 345.884 347.515L345.229 315.522ZM503.479 262.552C493.698 286.274 474.49 299.195 446.711 306.469C418.187 313.937 383.244 314.743 345.229 315.522L345.884 347.515C382.807 346.759 421.886 346.048 454.817 337.425C488.493 328.607 518.173 310.862 533.063 274.749L503.479 262.552ZM508.997 243.089C508.055 250.012 506.334 256.292 503.725 261.985L532.816 275.316C536.936 266.327 539.408 256.931 540.705 247.407L508.997 243.089Z" fill="#251605" mask="url(#path-13-inside-1_29_28)"/>
<path d="M258.747 175.304C260.606 210.902 232.213 241.778 194.729 243.736C157.245 245.693 125.79 217.942 123.931 182.344C122.072 146.746 150.465 115.87 187.95 113.912C225.434 111.955 256.889 139.706 258.747 175.304Z" fill="white" stroke="#251605" stroke-width="16"/>
<ellipse cx="180.645" cy="179.382" rx="49.7979" ry="59" transform="rotate(-2.98917 180.645 179.382)" fill="#251605"/>
<ellipse cx="165.998" cy="176.142" rx="13.922" ry="30" transform="rotate(-2.98917 165.998 176.142)" fill="white"/>
<path d="M459.474 164.822C461.333 200.421 432.94 231.297 395.455 233.254C357.971 235.211 326.517 207.461 324.658 171.862C322.799 136.264 351.192 105.388 388.676 103.431C426.16 101.473 457.615 129.224 459.474 164.822Z" fill="white" stroke="#251605" stroke-width="16"/>
<ellipse cx="381.371" cy="168.901" rx="49.7979" ry="59" transform="rotate(-2.98917 381.371 168.901)" fill="#251605"/>
<ellipse cx="366.725" cy="165.66" rx="13.922" ry="30" transform="rotate(-2.98917 366.725 165.66)" fill="white"/>
<path d="M263.79 251.879C277.227 294.134 326.222 294.332 332.867 247.502" stroke="#251605" stroke-width="20.4404" stroke-linecap="round"/>
</svg>
