<svg width="642" height="351" viewBox="0 0 642 351" fill="none" xmlns="http://www.w3.org/2000/svg">
<path d="M596.165 141.966C556.465 140.395 515.63 167.047 472.392 157.48L465.483 220.856C465.483 220.856 562.573 204.628 599.604 195.842C636.635 187.056 635.865 143.537 596.165 141.966Z" fill="#EC4067"/>
<path d="M472.392 157.48L474.203 149.692L465.392 147.743L464.416 156.692L472.392 157.48ZM596.165 141.966L596.557 133.995L596.165 141.966ZM599.604 195.842L597.81 188.083L599.604 195.842ZM465.483 220.856L457.507 220.068L456.375 230.456L466.742 228.723L465.483 220.856ZM470.581 165.268C494.219 170.498 516.88 165.738 537.539 160.446C558.812 154.997 577.426 149.212 595.772 149.937L596.557 133.995C575.203 133.15 553.55 139.905 533.671 144.997C513.178 150.247 493.803 154.029 474.203 149.692L470.581 165.268ZM595.772 149.937C612.409 150.596 618.332 159.417 618.643 166.614C618.974 174.254 613.278 184.413 597.81 188.083L601.398 203.601C622.961 198.485 635.396 182.492 634.674 165.783C633.932 148.631 619.621 134.907 596.557 133.995L595.772 149.937ZM597.81 188.083C579.556 192.414 546.255 198.629 517.311 203.792C502.883 206.365 489.609 208.665 479.94 210.322C475.107 211.15 471.175 211.817 468.454 212.277C467.093 212.507 466.034 212.685 465.316 212.806C464.958 212.866 464.684 212.912 464.5 212.943C464.408 212.958 464.339 212.97 464.293 212.978C464.27 212.981 464.252 212.984 464.241 212.986C464.235 212.987 464.231 212.988 464.228 212.988C464.226 212.989 464.225 212.989 464.225 212.989C464.224 212.989 464.224 212.989 465.483 220.856C466.742 228.723 466.743 228.723 466.743 228.723C466.744 228.722 466.745 228.722 466.747 228.722C466.75 228.721 466.755 228.721 466.761 228.72C466.773 228.718 466.791 228.715 466.814 228.711C466.862 228.703 466.932 228.691 467.025 228.675C467.211 228.644 467.487 228.598 467.848 228.537C468.571 228.416 469.635 228.237 471.001 228.006C473.733 227.544 477.677 226.875 482.524 226.044C492.217 224.384 505.529 222.077 520.003 219.496C548.862 214.348 582.621 208.056 601.398 203.601L597.81 188.083ZM473.459 221.644L480.367 158.268L464.416 156.692L457.507 220.068L473.459 221.644Z" fill="#251605"/>
<path d="M573.919 55.6844C542.888 59.9809 508.479 103.547 464.963 108.502L479.841 160.545C479.841 160.545 585.032 123.019 601.552 101.37C618.073 79.7203 604.951 51.3879 573.919 55.6844Z" fill="#EC4067"/>
<path d="M464.963 108.502L464.035 100.556L454.679 101.621L457.268 110.68L464.963 108.502ZM573.919 55.6844L572.8 47.7626L573.919 55.6844ZM601.552 101.37L595.184 96.5091L601.552 101.37ZM479.841 160.545L472.147 162.723L474.499 170.95L482.55 168.078L479.841 160.545ZM465.89 116.448C489.82 113.723 510.787 100.463 528.602 88.4858C537.762 82.3276 545.979 76.5691 553.935 71.9836C561.884 67.4027 568.796 64.4706 575.039 63.6061L572.8 47.7626C563.527 49.0465 554.502 53.1714 545.911 58.1224C537.328 63.0687 528.404 69.3172 519.643 75.207C501.618 87.3256 483.621 98.326 464.035 100.556L465.89 116.448ZM575.039 63.6061C587.851 61.8323 595.336 66.7848 598.559 72.638C601.921 78.7443 601.795 87.8453 595.184 96.5091L607.921 106.23C617.83 93.2445 619.403 77.3547 612.577 64.9566C605.611 52.3054 591.019 45.24 572.8 47.7626L575.039 63.6061ZM595.184 96.5091C593.877 98.2223 591.237 100.612 586.998 103.558C582.876 106.423 577.695 109.507 571.754 112.707C559.877 119.104 545.43 125.716 531.345 131.718C517.288 137.709 503.725 143.037 493.666 146.87C488.64 148.785 484.497 150.324 481.614 151.383C480.173 151.912 479.047 152.322 478.284 152.598C477.903 152.736 477.612 152.84 477.418 152.91C477.321 152.945 477.249 152.971 477.201 152.988C477.177 152.997 477.159 153.003 477.147 153.007C477.142 153.009 477.138 153.01 477.135 153.011C477.134 153.012 477.133 153.012 477.132 153.012C477.132 153.012 477.132 153.012 479.841 160.545C482.55 168.078 482.551 168.077 482.552 168.077C482.553 168.077 482.555 168.076 482.556 168.075C482.56 168.074 482.566 168.072 482.573 168.07C482.587 168.065 482.607 168.057 482.634 168.048C482.687 168.029 482.765 168.001 482.868 167.964C483.073 167.89 483.375 167.781 483.768 167.639C484.554 167.355 485.705 166.937 487.172 166.398C490.107 165.32 494.311 163.758 499.404 161.817C509.585 157.937 523.352 152.53 537.658 146.434C551.936 140.348 566.885 133.52 579.377 126.791C585.621 123.429 591.369 120.029 596.161 116.698C600.837 113.448 605.098 109.929 607.921 106.23L595.184 96.5091ZM487.535 158.368L472.657 106.325L457.268 110.68L472.147 162.723L487.535 158.368Z" fill="#251605"/>
<path d="M603.341 270.565C575.041 278.941 517.577 256.351 478.305 269.014L470.907 218.666C470.907 218.666 571.51 213.916 598.308 222.058C625.106 230.2 631.641 262.189 603.341 270.565Z" fill="#EC4067"/>
<path d="M478.305 269.014L480.739 276.635L471.768 279.527L470.397 270.198L478.305 269.014ZM598.308 222.058L600.644 214.396L598.308 222.058ZM470.907 218.666L462.998 219.849L461.71 211.085L470.549 210.668L470.907 218.666ZM475.872 261.393C497.491 254.422 523.468 257.264 546.002 260.245C557.61 261.78 568.317 263.371 577.998 264.091C587.754 264.817 595.458 264.555 601.092 262.887L605.59 278.243C597.074 280.764 586.983 280.819 576.778 280.06C566.498 279.296 555.077 277.602 543.873 276.12C520.782 273.065 498.392 270.943 480.739 276.635L475.872 261.393ZM601.092 262.887C606.742 261.215 609.952 258.593 611.674 256.078C613.39 253.573 614.036 250.596 613.574 247.382C612.632 240.824 606.852 233.026 595.972 229.72L600.644 214.396C616.562 219.232 627.448 231.499 629.398 245.065C630.382 251.914 629.031 259.013 624.85 265.117C620.676 271.21 614.09 275.727 605.59 278.243L601.092 262.887ZM595.972 229.72C590.309 228 579.893 226.79 566.655 226.089C553.677 225.401 538.763 225.231 524.587 225.315C510.428 225.399 497.088 225.736 487.284 226.053C482.384 226.211 478.371 226.364 475.588 226.477C474.196 226.534 473.111 226.581 472.376 226.613C472.009 226.629 471.729 226.642 471.542 226.65C471.448 226.655 471.378 226.658 471.332 226.66C471.308 226.661 471.291 226.662 471.28 226.662C471.274 226.663 471.27 226.663 471.268 226.663C471.266 226.663 471.266 226.663 471.265 226.663C471.265 226.663 471.265 226.663 470.907 218.666C470.549 210.668 470.549 210.668 470.55 210.668C470.551 210.668 470.553 210.668 470.555 210.668C470.558 210.667 470.563 210.667 470.57 210.667C470.583 210.666 470.602 210.665 470.627 210.664C470.678 210.662 470.752 210.658 470.85 210.654C471.045 210.645 471.334 210.632 471.71 210.615C472.462 210.582 473.565 210.535 474.976 210.477C477.798 210.363 481.855 210.208 486.805 210.048C496.701 209.729 510.188 209.388 524.529 209.302C538.853 209.217 554.115 209.386 567.537 210.098C580.699 210.796 592.908 212.045 600.644 214.396L595.972 229.72ZM478.815 217.482L486.214 267.83L470.397 270.198L462.998 219.849L478.815 217.482Z" fill="#251605"/>
<path d="M40.6376 153.49C75.7208 154.403 127.055 167.882 172.5 153.631L182.445 213.285C182.445 213.285 73.8608 213.952 39.2184 205.306C4.57595 196.659 5.55437 152.577 40.6376 153.49Z" fill="#EC4067"/>
<path d="M172.5 153.631L170.026 146.027L178.895 143.246L180.42 152.391L172.5 153.631ZM40.6376 153.49L40.7824 145.521L40.7824 145.521L40.6376 153.49ZM39.2184 205.306L41.1154 197.575L39.2184 205.306ZM182.445 213.285L190.364 212.046L191.89 221.2L182.56 221.257L182.445 213.285ZM174.974 161.234C150.808 168.813 125.409 168.926 102.149 167.196C90.5093 166.331 79.1921 164.983 68.8171 163.823C58.3352 162.651 48.8718 161.677 40.4928 161.459L40.7824 145.521C49.945 145.759 60.0546 146.813 70.4852 147.979C81.0227 149.158 91.9575 150.46 103.218 151.297C125.756 152.973 148.748 152.7 170.026 146.027L174.974 161.234ZM40.4928 161.459C33.4709 161.277 28.9628 163.327 26.2352 165.845C23.4633 168.403 21.908 172.011 21.8063 176.076C21.606 184.089 27.24 194.112 41.1154 197.575L37.3213 213.036C16.5543 207.853 5.35634 191.512 5.7554 175.551C5.95347 167.629 9.05567 159.846 15.2519 154.126C21.4923 148.365 30.2627 145.247 40.7824 145.521L40.4928 161.459ZM41.1154 197.575C57.4114 201.643 92.2594 203.648 123.992 204.57C139.653 205.024 154.245 205.21 164.926 205.283C170.265 205.319 174.622 205.327 177.642 205.325C179.152 205.325 180.327 205.322 181.123 205.319C181.521 205.318 181.825 205.316 182.027 205.315C182.129 205.315 182.205 205.314 182.256 205.314C182.281 205.314 182.3 205.314 182.312 205.314C182.318 205.314 182.323 205.314 182.326 205.314C182.327 205.314 182.328 205.314 182.329 205.314C182.329 205.314 182.329 205.314 182.445 213.285C182.56 221.257 182.559 221.257 182.558 221.257C182.557 221.257 182.555 221.257 182.553 221.257C182.55 221.257 182.544 221.257 182.537 221.257C182.523 221.257 182.503 221.258 182.476 221.258C182.422 221.258 182.342 221.258 182.237 221.259C182.026 221.26 181.716 221.261 181.31 221.263C180.499 221.266 179.307 221.268 177.78 221.269C174.727 221.271 170.33 221.263 164.948 221.226C154.187 221.153 139.468 220.966 123.653 220.507C92.4328 219.6 55.6677 217.616 37.3213 213.036L41.1154 197.575ZM174.525 214.525L164.58 154.87L180.42 152.391L190.364 212.046L174.525 214.525Z" fill="#251605"/>
<path d="M63.1288 69.2746C96.3796 69.3543 138.437 109.04 184.923 108.06L176.212 163.233C176.212 163.233 60.4274 139.531 40.1376 119.729C19.8477 99.9282 29.878 69.1948 63.1288 69.2746Z" fill="#EC4067"/>
<path d="M184.923 108.06L184.776 100.062L194.313 99.8607L192.825 109.285L184.923 108.06ZM40.1376 119.729L34.5414 125.462L40.1376 119.729ZM176.212 163.233L184.114 164.459L182.805 172.753L174.586 171.071L176.212 163.233ZM185.069 116.058C159.696 116.593 135.975 106.044 115.59 96.2814C105.136 91.2746 95.6889 86.5255 86.675 82.9408C77.6751 79.3616 69.9124 77.2906 63.0871 77.2743L63.1705 61.2749C72.9706 61.2984 82.9341 64.2181 92.6244 68.0718C102.301 71.92 112.508 77.0461 122.535 81.8481C143.113 91.7033 163.663 100.507 184.776 100.062L185.069 116.058ZM63.0871 77.2743C49.0478 77.2406 41.6216 83.5112 38.9651 90.0425C36.2338 96.7577 37.5688 106.029 45.7337 113.997L34.5414 125.462C22.4165 113.629 18.6216 97.6327 24.1458 84.0508C29.7447 70.2851 43.9591 61.2288 63.1705 61.2749L63.0871 77.2743ZM45.7337 113.997C47.3732 115.597 50.5139 117.692 55.3921 120.121C60.1389 122.484 66.0263 124.92 72.7225 127.366C86.1085 132.255 102.225 137.003 117.867 141.177C133.48 145.344 148.483 148.901 159.593 151.418C165.144 152.676 169.715 153.673 172.894 154.354C174.484 154.694 175.725 154.956 176.566 155.132C176.987 155.22 177.307 155.287 177.521 155.331C177.628 155.353 177.709 155.37 177.762 155.38C177.788 155.386 177.808 155.39 177.821 155.393C177.827 155.394 177.832 155.395 177.835 155.395C177.836 155.396 177.837 155.396 177.837 155.396C177.838 155.396 177.838 155.396 176.212 163.233C174.586 171.071 174.585 171.071 174.584 171.07C174.583 171.07 174.581 171.07 174.579 171.069C174.575 171.068 174.569 171.067 174.561 171.066C174.546 171.062 174.523 171.058 174.494 171.052C174.436 171.04 174.35 171.022 174.237 170.999C174.012 170.952 173.68 170.883 173.247 170.793C172.383 170.612 171.116 170.345 169.5 169.999C166.268 169.306 161.635 168.296 156.015 167.023C144.78 164.477 129.569 160.871 113.7 156.637C97.86 152.41 81.2256 147.52 67.1955 142.396C60.1835 139.835 53.6965 137.17 48.2278 134.447C42.8903 131.789 37.9743 128.812 34.5414 125.462L45.7337 113.997ZM168.31 162.008L177.02 106.834L192.825 109.285L184.114 164.459L168.31 162.008Z" fill="#251605"/>
<path d="M47.8126 290.35C78.3424 295.838 136.132 264.644 178.608 273.371L181.015 218.633C181.015 218.633 75.1398 225.882 47.9363 237.87C20.7328 249.858 17.2827 284.862 47.8126 290.35Z" fill="#EC4067"/>
<path d="M178.608 273.371L177.02 281.213L186.184 283.096L186.595 273.743L178.608 273.371ZM47.8126 290.35L46.4187 298.23L47.8126 290.35ZM47.9363 237.87L51.1711 245.199L47.9363 237.87ZM181.015 218.633L189.001 219.004L189.395 210.033L180.45 210.646L181.015 218.633ZM180.197 265.529C156.872 260.737 130.023 266.94 106.737 272.888C94.7503 275.95 83.6906 278.968 73.6147 280.926C63.4594 282.899 55.3256 283.57 49.2065 282.47L46.4187 298.23C55.5645 299.874 66.1031 298.703 76.6973 296.644C87.3709 294.57 99.1379 291.363 110.724 288.404C134.585 282.309 157.869 277.279 177.02 281.213L180.197 265.529ZM49.2065 282.47C43.0832 281.37 39.3847 278.943 37.2515 276.391C35.1149 273.834 34.0615 270.579 34.212 266.894C34.5189 259.382 39.9937 250.125 51.1711 245.199L44.7016 230.541C28.6754 237.604 18.8235 251.842 18.2369 266.201C17.9407 273.452 20.0489 280.725 25.0018 286.651C29.9582 292.58 37.277 296.586 46.4187 298.23L49.2065 282.47ZM51.1711 245.199C56.9708 242.643 67.7934 240.068 81.5781 237.697C95.107 235.37 110.716 233.36 125.575 231.713C140.418 230.068 154.428 228.794 164.732 227.931C169.882 227.499 174.101 227.171 177.03 226.951C178.494 226.841 179.635 226.758 180.408 226.702C180.795 226.675 181.09 226.654 181.287 226.64C181.385 226.633 181.459 226.628 181.508 226.625C181.533 226.623 181.551 226.622 181.563 226.621C181.569 226.621 181.573 226.62 181.576 226.62C181.577 226.62 181.578 226.62 181.579 226.62C181.579 226.62 181.579 226.62 181.015 218.633C180.45 210.646 180.449 210.646 180.448 210.646C180.447 210.646 180.446 210.646 180.444 210.646C180.44 210.646 180.435 210.647 180.428 210.647C180.414 210.648 180.394 210.649 180.367 210.651C180.314 210.655 180.236 210.66 180.133 210.668C179.928 210.682 179.625 210.703 179.229 210.732C178.438 210.788 177.278 210.873 175.795 210.984C172.827 211.207 168.562 211.539 163.361 211.975C152.964 212.846 138.805 214.133 123.778 215.799C108.769 217.462 92.808 219.513 78.8344 221.916C65.1166 224.276 52.5035 227.103 44.7016 230.541L51.1711 245.199ZM173.028 218.261L170.622 273L186.595 273.743L189.001 219.004L173.028 218.261Z" fill="#251605"/>
<mask id="path-13-inside-1_22_75" fill="white">
<path fill-rule="evenodd" clip-rule="evenodd" d="M525.061 245.746C528.337 226.66 528.052 203.267 523.413 174.576C515.897 30.6288 420.489 11.1546 304.404 17.2163C188.32 23.2781 95.3886 50.6689 102.281 182.66C102.614 189.034 103.36 195.331 104.503 201.525C92.0864 214.96 85.5248 229.559 86.3076 244.55C91.8856 351.37 206.124 342.866 313.989 332.835C324.53 332.452 335.167 332.234 345.766 332.017C420.704 330.481 493.81 328.983 518.481 269.149C521.845 261.808 523.941 253.969 525.061 245.746Z"/>
</mask>
<path fill-rule="evenodd" clip-rule="evenodd" d="M525.061 245.746C528.337 226.66 528.052 203.267 523.413 174.576C515.897 30.6288 420.489 11.1546 304.404 17.2163C188.32 23.2781 95.3886 50.6689 102.281 182.66C102.614 189.034 103.36 195.331 104.503 201.525C92.0864 214.96 85.5248 229.559 86.3076 244.55C91.8856 351.37 206.124 342.866 313.989 332.835C324.53 332.452 335.167 332.234 345.766 332.017C420.704 330.481 493.81 328.983 518.481 269.149C521.845 261.808 523.941 253.969 525.061 245.746Z" fill="#FDF1E1"/>
<path d="M523.413 174.576L507.435 175.41L507.48 176.275L507.618 177.13L523.413 174.576ZM525.061 245.746L509.292 243.039L509.245 243.312L509.207 243.587L525.061 245.746ZM104.503 201.525L116.254 212.384L121.692 206.499L120.237 198.619L104.503 201.525ZM313.989 332.835L313.406 316.846L312.956 316.862L312.507 316.904L313.989 332.835ZM345.766 332.017L345.439 316.02L345.439 316.02L345.766 332.017ZM518.481 269.149L503.935 262.483L503.806 262.764L503.689 263.05L518.481 269.149ZM507.618 177.13C512.069 204.659 512.183 226.191 509.292 243.039L540.831 248.452C544.491 227.128 544.035 201.876 539.208 172.022L507.618 177.13ZM305.239 33.1946C362.965 30.1802 411.765 33.8962 446.778 53.5885C480.061 72.3073 503.88 107.322 507.435 175.41L539.391 173.742C535.43 97.8831 507.787 51.1868 462.465 25.6971C418.874 1.18093 361.928 -1.80927 303.57 1.2381L305.239 33.1946ZM118.259 181.826C116.633 150.69 120.957 126.898 129.22 108.548C137.414 90.3504 149.864 76.6403 165.98 66.108C199.004 44.5248 247.435 36.213 305.239 33.1946L303.57 1.2381C245.289 4.28144 189.213 12.6958 148.473 39.3214C127.707 52.8934 110.961 71.1583 100.041 95.4089C89.1906 119.506 84.4824 148.635 86.3027 183.495L118.259 181.826ZM120.237 198.619C119.22 193.11 118.556 187.504 118.259 181.826L86.3027 183.495C86.6719 190.564 87.4994 197.553 88.7692 204.43L120.237 198.619ZM102.286 243.715C101.794 234.299 105.776 223.722 116.254 212.384L92.7527 190.665C78.3968 206.199 69.2555 224.82 70.3294 245.384L102.286 243.715ZM312.507 316.904C257.851 321.987 205.132 326.195 165.426 316.93C145.96 312.388 131.061 304.893 120.744 293.881C110.626 283.082 103.524 267.418 102.286 243.715L70.3294 245.384C71.8807 275.092 81.1493 298.423 97.3912 315.759C113.433 332.882 134.881 342.663 158.155 348.093C203.928 358.774 262.261 353.715 315.47 348.767L312.507 316.904ZM345.439 316.02C334.861 316.237 324.096 316.457 313.406 316.846L314.571 348.825C324.964 348.446 335.472 348.231 346.094 348.013L345.439 316.02ZM503.689 263.05C493.908 286.772 474.7 299.693 446.921 306.967C418.397 314.435 383.454 315.241 345.439 316.02L346.094 348.013C383.016 347.257 422.096 346.546 455.027 337.923C488.703 329.105 518.383 311.36 533.273 275.248L503.689 263.05ZM509.207 243.587C508.265 250.51 506.544 256.791 503.935 262.483L533.026 275.814C537.146 266.825 539.618 257.429 540.915 247.905L509.207 243.587Z" fill="#251605" mask="url(#path-13-inside-1_22_75)"/>
<path d="M258.957 175.802C260.816 211.4 232.423 242.276 194.939 244.234C157.455 246.191 126 218.44 124.141 182.842C122.282 147.244 150.675 116.368 188.16 114.41C225.644 112.453 257.099 140.204 258.957 175.802Z" fill="white" stroke="#251605" stroke-width="16"/>
<ellipse cx="180.855" cy="179.88" rx="49.7979" ry="59" transform="rotate(-2.98917 180.855 179.88)" fill="#251605"/>
<ellipse cx="166.208" cy="176.64" rx="13.922" ry="30" transform="rotate(-2.98917 166.208 176.64)" fill="white"/>
<path d="M459.684 165.32C461.543 200.919 433.15 231.795 395.665 233.752C358.181 235.709 326.727 207.958 324.868 172.36C323.009 136.762 351.402 105.886 388.886 103.929C426.37 101.971 457.825 129.722 459.684 165.32Z" fill="white" stroke="#251605" stroke-width="16"/>
<ellipse cx="381.581" cy="169.399" rx="49.7979" ry="59" transform="rotate(-2.98917 381.581 169.399)" fill="#251605"/>
<ellipse cx="366.935" cy="166.158" rx="13.922" ry="30" transform="rotate(-2.98917 366.935 166.158)" fill="white"/>
<path d="M264 252.377C277.437 294.632 326.432 294.83 333.077 248" stroke="#251605" stroke-width="20.4404" stroke-linecap="round"/>
</svg>
